<?xml version="1.0" encoding="UTF-8"?>
<svg id="Layer_1" xmlns="http://www.w3.org/2000/svg" version="1.1" viewBox="0 0 800 800">
  <!-- Generator: Adobe Illustrator 30.2.1, SVG Export Plug-In . SVG Version: 2.1.1 Build 1)  -->
  <path d="M694.11,265.09C679.05,113.96,552.61,0,400.02,0,236.99,0,104.37,132.62,104.37,295.64c0,64.43,20.25,125.51,58.58,176.66l215.43,316.18c4.86,7.2,12.96,11.51,21.64,11.51s16.78-4.31,21.64-11.51l214.84-315.4c44.65-59.29,65.12-133.17,57.63-207.99ZM400.02,426.08c-71.92,0-130.43-58.51-130.43-130.43s58.51-130.43,130.43-130.43,130.43,58.51,130.43,130.43-58.51,130.43-130.43,130.43Z" fill="#ff3c3d"/>
  <path d="M530.45,295.64c0,71.92-58.51,130.43-130.43,130.43v373.93c8.68,0,16.78-4.31,21.64-11.51l214.84-315.4c44.65-59.29,65.11-133.17,57.63-208C679.05,113.96,552.61,0,400.02,0v165.21c71.92,0,130.43,58.51,130.43,130.43Z" fill="red"/>
</svg>