<svg enable-background="new 0 0 1920 1920" viewBox="0 0 1920 1920" xmlns="http://www.w3.org/2000/svg"><g fill="#0d0d0d"><path d="m618.4 1478.6c-23.7 0-43.6 20.4-43.6 44.6 0 23.7 20 43.6 43.6 43.6 24.1 0 44.6-20 44.6-43.6-.1-24.1-20.5-44.6-44.6-44.6z"/><path d="m1127.6 834.4c-36.6-35.5-84.7-55.1-135.4-55.1-2 0-4.1 0-6.1.1-104.2 3.1-188.9 92.4-188.9 199.2v319.2c0 5.9 4.8 10.7 10.7 10.7h74.4c5.9 0 10.7-4.8 10.7-10.7v-126.6c0-3.1 2.5-5.6 5.6-5.6h186.5c3.1 0 5.6 2.5 5.6 5.6v126.3c0 5.9 4.8 10.7 10.7 10.7h74.4c5.9 0 10.7-4.8 10.7-10.7v-323.4c.4-53-20.7-102.6-58.9-139.7zm-36.7 231.3c0 3.1-2.5 5.6-5.6 5.6h-186.5c-3.1 0-5.6-2.5-5.6-5.6v-89.1c0-51.8 39.3-96.1 89.4-100.8 28.2-2.6 55.2 6.4 76 25.3 20.6 18.7 32.4 45.4 32.4 73.1v91.5z"/><path d="m499.7 970.8h-154.6c-5.7 0-10.3 4.6-10.3 10.3v431.3c0 5.7 4.6 10.3 10.3 10.3h154.6c124 0 224.8-101.7 224.8-226.6 0-124.2-100.9-225.3-224.8-225.3zm-.3 365.3h-68.2c-3 0-5.4-2.4-5.4-5.4v-268.6c0-3 2.4-5.4 5.4-5.4h68.2c76.2 0 133.7 59.9 133.7 139.4.1 79.8-57.4 140-133.7 140z"/><path d="m1642.6 970.3h-68.5c-6.1 0-11.6 3.6-14 9.1l-91.9 208.9c-.9 2-2.9 3.3-5.1 3.4s-4.2-1.2-5.1-3.3l-97.1-209.3c-2.5-5.4-7.9-8.9-13.9-8.9h-70.8c-4.5 0-8.6 2.3-11.1 6.1-2.4 3.8-2.7 8.5-.8 12.6l150.5 322.1c.7 1.5.7 3.1.1 4.6l-58 133.6c-1.8 4.1-1.4 8.7 1.1 12.4 2.5 3.8 6.5 5.9 11 5.9h68.7c6.1 0 11.6-3.6 14-9.2l202.9-469.7c1.8-4.1 1.4-8.6-1.1-12.4-2.4-3.8-6.4-5.9-10.9-5.9z"/><path d="m1654.7 988.6-202.9 469.7c-2.4 5.6-7.9 9.2-14 9.2h-68.8c-4.5 0-8.5-2.2-11-5.9-2.5-3.8-2.9-8.3-1.1-12.4l58-133.6c.6-1.5.6-3.2-.1-4.6l-150.5-322.1c-1.9-4.1-1.6-8.8.8-12.6s6.6-6.1 11.1-6.1h70.8c5.9 0 11.4 3.5 13.9 8.9l97.1 209.3c.9 2 2.9 3.3 5.1 3.3s4.2-1.3 5.1-3.4l91.9-208.9c2.4-5.6 7.9-9.1 14-9.1h68.5c4.5 0 8.5 2.2 11 5.9s2.8 8.2 1.1 12.4z"/><path d="m831.7 1451.5c14.7-14.7 34.2-22.5 55.2-21.8 19.2.6 38 8.4 51.5 21.4.1.1.1.1.2.2 1.4 1.5 3.1 2.3 5 2.3s3.8-.7 5.2-2l31.3-30.4c1.7-1.6 2.6-3.6 2.6-5.7s-.9-4.1-2.6-5.7c-26.7-26.1-55.5-38.3-93.3-39.5-1.8-.1-3.5-.1-5.3-.1-35.5 0-69.2 13.3-95.5 37.8-27.7 25.8-43.7 60.8-45 98.5-2.6 77.3 58.5 142.3 136.2 144.9 36.6 1.2 69.9-10.8 96.2-34.7 3-2.8 3.4-8.1.8-10.9l-29.2-33.3c-1.2-1.5-3-2.4-5-2.5-2.1-.2-4.2.4-5.7 1.6-13.8 11.1-33.5 17.4-52.6 16.9-42.9-1.5-75.2-37.2-73.8-81.3 1.1-21.4 9.4-41.2 23.8-55.7z"/><path d="m1206.8 1396.4c-20.9-20.3-48.5-31-77.5-30.1-57.1 1.7-103.5 50.6-103.5 109v164.9c0 2.6 2.1 4.7 4.7 4.7h52c2.6 0 4.7-2.1 4.7-4.7v-64.2c0-1.3 1-2.3 2.3-2.3h86.1c1.3 0 2.3 1 2.3 2.3v64.2c0 2.6 2.1 4.7 4.7 4.7h52c2.6 0 4.7-2.1 4.7-4.7v-167.2c0-29.1-11.6-56.3-32.5-76.6zm-117.3 119.2c-1.3 0-2.3-1-2.3-2.3v-39.1c0-23.9 18-44.3 41-46.5 12.9-1.2 25.3 2.9 34.9 11.6 9.4 8.6 14.9 20.8 14.9 33.6v40.3c0 1.3-1 2.3-2.3 2.3h-86.2z"/><path d="m722.4 344.1c-61.9 1.9-112.3 54.9-112.3 118.3v404.3c0 4.2 3.4 7.7 7.6 7.7h54.3c4.2 0 7.7-3.4 7.7-7.7l.2-272.5 92.2.2v112.3c0 4.2 3.4 7.7 7.7 7.7h54.2c4.2 0 7.6-3.4 7.6-7.7v-246.8c0-31.5-12.5-61-35.2-83.1-22.6-22-52.4-33.6-84-32.7zm49.7 110.8-.2 73h-92l-.2-.2v-71.6c0-24.3 18.3-45.1 41.7-47.3 1.5-.1 3-.2 4.5-.2 11.5 0 22.4 4.2 31 12 9.6 9 15.2 21.4 15.2 34.3z"/><path d="m543.2 809.5-134-.2.2-77.6h122.6c4.2 0 7.6-3.4 7.6-7.7v-50c0-4.2-3.4-7.7-7.6-7.7l-122.8-.2.2-66.7h131.8c4.2 0 7.6-3.4 7.6-7.7v-50c0-4.2-3.4-7.7-7.6-7.7h-193c-4.2 0-7.6 3.4-7.6 7.7v325.1c0 4.2 3.4 7.7 7.6 7.7h195c4.2 0 7.6-3.4 7.6-7.7v-50c.1-3.8-3.4-7.3-7.6-7.3z"/><path d="m1443.7 532.6v-50.5c0-4.2-3.4-7.7-7.6-7.7h-247.7c-4.2 0-7.6 3.4-7.6 7.7v50.5c0 4.2 3.4 7.7 7.6 7.7h85c2.4 0 4.4 2 4.4 4.4v342.1c0 4.2 3.4 7.7 7.6 7.7h54.6c4.2 0 7.6-3.4 7.6-7.7l.2-346.4h88.3c4.1-.2 7.6-3.6 7.6-7.8z"/><path d="m1647.5 608.6h-53c-4.2 0-7.6 3.4-7.6 7.7l-.2 109.8-96.5-.2v-109.6c0-4.2-3.4-7.7-7.6-7.7h-53c-4.2 0-7.6 3.4-7.6 7.7v273.7c0 4.2 3.4 7.7 7.6 7.7h53c4.2 0 7.6-3.4 7.6-7.7l.2-98.6 96.5.2v98.4c0 4.2 3.4 7.7 7.6 7.7h53c4.2 0 7.6-3.4 7.6-7.7v-273.7c.1-4.3-3.4-7.7-7.6-7.7z"/><path d="m1108.8 480.9c-.6-1.9.1-4 1.7-5 6.6-4.2 12.8-9.3 18.3-14.9 19.3-19.9 29.5-46 28.6-73.6-1.6-54.2-48-98.3-103.4-98.3h-140.9c-4.2 0-7.6 3.4-7.6 7.7v410.3c0 4.2 3.4 7.7 7.6 7.7h54.4c4.2 0 7.6-3.4 7.6-7.7v-211c0-2.4 2-4.4 4.4-4.4h58.2c1.9 0 3.5 1.2 4.1 3l73.3 214.7c1 3.1 3.9 5.1 7.2 5.1h54.8c2.8 0 5.3-1.3 7-3.6 1.6-2.3 2-5.1 1.1-7.7zm-27.1-66.2c-6.9 7.5-16.6 11.9-26.8 11.9h-74.8c-2.4 0-4.4-2-4.4-4.4v-63.8c0-2.4 2-4.4 4.4-4.4h73.6c19.1 0 35.5 14.4 37.2 32.8 1.1 10.4-2.2 20.3-9.2 27.9z"/></g></svg>