<?xml version="1.0" encoding="UTF-8"?>
<svg id="Layer_1" xmlns="http://www.w3.org/2000/svg" version="1.1" viewBox="0 0 1946.8 1165.3">
  <!-- Generator: Adobe Illustrator 30.2.1, SVG Export Plug-In . SVG Version: 2.1.1 Build 1)  -->
  <path d="M1297.3,452.4c-16.5-156.6-106.4-291.4-270.8-314.6-116.9-16.5-227.2,24.3-301.9,115-49.6,60.3-77.4,137.4-82.4,215.3-182.7,22.9-365.7,64.5-530.3,148.4.1.9,2.7.1,3.5,0,15.5-2.8,31-6.7,46.5-9.6,117.2-22.1,237.8-37.7,356.6-48.7,42-3.9,84.1-7,126.2-9.4,14.4,130.3,98.3,243.2,222.2,288.1,89.2,32.3,200.5,27.4,286.2-13.7,47-22.6,87.3-57,122-95.5l-86.2-76.1c-10.8,9.6-20.9,20.4-32.3,29.7-61.4,50.2-142.2,71.4-220.6,54.1-94.2-20.7-159.1-99-171.5-193.4,320.8-13.5,643.2,4.1,960.3,54.6,32.2,5.2,68.9,14.4,100.6,17.5,1,.1,3.1.8,2.9-.7-166.4-76.8-347.9-118.5-529.4-143.1-1.1-.7-1.3-15.1-1.6-17.9ZM1112.6,451.9c-12.6-.8-25.6-2.2-38.2-2.6-90.2-3-181-4.3-271.1,2.6-12-1.3-27.6,1.7-39.1,0-1.3-.2-1.3.5-1.3-1.3.1-6.4,2.4-16.9,3.7-23.5,23.5-122,123.6-215.4,253.6-184.5,96.7,23,145.9,116.2,153.9,209.3h-61.5Z"/>
  <path d="M882.6,1032.2v-111.3h65c5,0,19.4,4.7,24.3,7.2,36.2,18.2,38.3,73.8,3.6,94.6-6.5,3.9-22.2,9.5-29.6,9.5h-63.3ZM920,1003.3h16.6c2.5,0,9.2-1.7,11.7-2.7,17.7-7.4,18.9-36.1,3.4-46.4-2.1-1.4-9.6-4.4-11.8-4.4h-20v53.5h.1Z"/>
  <path d="M596.7,920.9c6.3.6,17.9,4.7,23.3,8.1,24.9,16,23.4,55.6-3.3,68.7l22.9,34.4h-39.5c-5.2-6.3-9.1-14.3-14-20.6-.6-.8-1.7-1.2-2.4-2-1-1.2-1.9-3.8-3.1-4.6-2.4-1.8-7.6-.4-10.7-.8v28h-37.4v-111.2h64.2ZM569.9,976.1h15.7c.3,0,5.5-1.2,6.2-1.4,9.5-3.2,10.7-17.3,2.7-22.8-.6-.4-4.3-2.2-4.6-2.2h-20v26.4Z"/>
  <path d="M1335.3,918.6c43.3-4.4,81.4,26.6,70.4,72.1-15.9,65.8-130,57.1-123.8-21,2.2-27.7,26.6-48.4,53.4-51.1ZM1338.7,949.1c-25.7,4.3-25.9,51.6,1.6,54.9,39.6,4.8,39.3-61.8-1.6-54.9Z"/>
  <path d="M1484.6,920.9c6.3.6,17.9,4.7,23.3,8.1,24.9,16,23.4,55.6-3.3,68.7l22.9,34.4h-39.5l-18.6-27.2-10.7-.8v28h-37.4v-111.2h63.3ZM1458.7,976.1h14.9c.3,0,5.5-1.2,6.2-1.4,9.5-3.2,10.7-17.3,2.7-22.8-.6-.4-4.3-2.2-4.6-2.2h-19.1v26.4h-.1Z"/>
  <path d="M792.6,920.9v39.1h34.8v-39.1h37.4v111.3h-37.4v-40.8h-34.8v40.8h-37.4v-111.3h37.4Z"/>
  <path d="M387.3,920.9v28h-53.6v13.6h47.6v26.4h-47.6v15.2h56.1v28.1h-92.6v-111.3h90.1Z"/>
  <path d="M1614.2,973.6h32.3v47.6c-33.5,20.8-89.5,20-106.4-21.5-23.1-57.1,37.5-97.3,88.5-75.7,3.8,1.6,21.1,11.7,20.3,16l-23.2,20.9c-17.5-21-52.3-14.9-52.3,15.7,0,22.9,21.1,33.9,40.8,24.6v-27.6Z"/>
  <path d="M392.4,1032.2l48-110.5,36.6-.9,48.8,111.4h-37.8l-8.6-19.4-42,.4-6.7,19h-38.3ZM469.7,985.5l-10.2-27.2c-1.2.1-1.3,1.3-1.7,2.1-3.8,7.5-6.3,17.2-9.3,25.1h21.2Z"/>
  <path d="M1000.7,1032.2l48-110.5,36.6-.9,48.8,111.4h-37.8l-8.6-19.4-42,.4-6.7,19h-38.3ZM1078.1,985.5l-10.2-27.2c-1.2.1-1.3,1.3-1.7,2.1-3.8,7.5-6.3,17.2-9.3,25.1h21.2Z"/>
  <path d="M1160.1,920.9l22.9,38.2,22.9-38.2h36.2l-41.7,70.1v41.2h-37.4v-40.4l-42.5-70.9h39.6Z"/>
  <path d="M745,920.9v28.9h-33.2v82.4h-37.3v-82.4h-32.3v-28.9h102.8Z"/>
  <circle cx="1256.1" cy="1013.3" r="20.9"/>
  <path d="M1315.3,787.6c0,15.3-12.4,27.7-27.7,27.7s-27.7-12.4-27.7-27.7,12.4-27.7,27.7-27.7,27.7,12.4,27.7,27.7ZM1312.2,787.6c0-13.6-11-24.6-24.6-24.6s-24.6,11-24.6,24.6,11,24.6,24.6,24.6,24.6-11,24.6-24.6Z"/>
  <path d="M1293.5,772.2c9.1,1.8,9.8,15.5,1.3,19.1l6.8,9.8c-2.3-.2-5.5.6-7.7-.4-3.4-1.7-4.1-11.5-11-8.9v9.4h-6.8v-28.9c5.1.6,12.6-1,17.4-.1h0ZM1282.8,786.7c3.1-.2,10.3,1.2,11.1-3,1.3-7.3-6.3-5.4-11.1-5.5v8.5Z"/>
</svg>