<svg viewBox="0 0 324 72" xmlns="http://www.w3.org/2000/svg"><path d="m119.4 26c-.5-1.5-1.2-2.7-2.2-3.7-.9-1-2-1.7-3.3-2.2s-2.6-.7-4.1-.7-2.8.2-4 .7c-1.3.5-2.3 1.2-3.3 2.2-.9 1-1.7 2.2-2.2 3.7s-.8 3.3-.8 5.3.3 3.8.8 5.3 1.2 2.7 2.2 3.7c.9 1 2 1.7 3.3 2.2s2.6.7 4 .7 2.8-.2 4.1-.7 2.3-1.2 3.3-2.2c.9-1 1.7-2.2 2.2-3.7s.8-3.3.8-5.3-.3-3.8-.8-5.3m-22.4-.3c.7-1.7 1.6-3 2.9-4.2 1.2-1.1 2.7-2 4.4-2.6s3.6-.9 5.6-.9 3.9.3 5.7.9c1.7.6 3.2 1.5 4.4 2.6s2.2 2.5 2.9 4.2 1 3.5 1 5.6-.3 4-1 5.6-1.6 3-2.9 4.2c-1.2 1.1-2.7 2-4.4 2.6s-3.6.8-5.7.8-3.9-.3-5.6-.8c-1.7-.6-3.2-1.4-4.4-2.6-1.2-1.1-2.2-2.5-2.9-4.2s-1-3.5-1-5.6.3-4 1-5.6"/><path d="m93.7 35.1c0-1.2 0-2.3 0-3.5s0-2.3 0-3.5c0-1.6 0-3.2 0-4.8 0-4.3-3.4-4.8-3.4-4.8 0 1.6.1 3.2.2 4.8v4.8 10.2c0 1.5 0 2.8-.1 4 0 1.2-.3 2.2-.6 3.1s-.8 1.5-1.4 2c0 0-.9.9-2.7 1.8 1.4 0 2.6-.2 3.6-.6.9-.4 1.7-1 2.4-1.7s1.2-1.5 1.5-2.5c.4-.9.5-2 .5-3.1s0-1.9 0-2.9c0-1.1 0-2.2 0-3.3"/><path d="m134.5 29.5h6.1 3.9v-1.3c0-1.6 0-3.2 0-4.8 0-.4 0-.7 0-1.1 0-3 3.2-3.6 3.5-3.7 0 1.6-.1 3.2-.2 4.8v4.8 6.4 4.8c0 1.6.1 3.2.2 4.7-.3 0-3.5-.7-3.5-3.7 0-.3 0-.7 0-1 0-1.6 0-3.2 0-4.8v-3.4c-1.3 0-2.6 0-3.9 0s-2.6 0-3.9 0-5 0-6.2 0c0 0 .8-1.6 4-1.6"/><path d="m125.9 28.1v6.4 4.8c0 1.6-.1 3.2-.2 4.7.3 0 3.5-.7 3.5-3.7 0-.3 0-.7 0-1 0-1.6 0-3.2 0-4.8v-6.4c0-1.6 0-3.2 0-4.8 0-.4 0-.9 0-1.3-.2-2.9-3.5-3.5-3.5-3.5 0 1.6.1 3.2.2 4.8z"/><path d="m153.8 24c3.2 3.4 6.5 6.9 9.7 10.3 2.6 2.8 5.1 5.6 7.5 8.3s0 0 0 0c.3.4.7.8 1 1.1.8.8 1.8 1.3 2-.6 0-.6 0-1.2 0-2s0-1.7 0-2.6 0-1.9 0-2.8 0-1.8 0-2.6v-2.2c0-.7 0-1.7 0-2.9s.1-2.4.2-3.6c0-1.2.1-2.4.2-3.5 0-1 .1-1.8.2-2.4-.5.1-.8.2-.8.2s-2.3.8-2.3 3.8v2.9 7.6 5.1c-1.1-1.1-2.5-2.5-4-4.2-1.5-1.6-3.1-3.4-4.8-5.2-1.6-1.7-7-7.1-9.2-9.4-2.1-1.9-2.1.3-2.1.3v2.1 6.1s0 1.8 0 2.8v3.2c0 1.1 0 2.2-.1 3.3 0 1-.1 1.8-.1 2.7 0 1 .5 3.2 3.1 4.2 0-.2 0-.6 0-1.1 0-.6 0-1.2 0-2 0-.7 0-1.6 0-2.4 0-.9 0-1.7 0-2.6 0-.8 0-1.7 0-2.4 0-.8 0-1.4 0-1.9 0-2 0-3.6 0-4.8s0-2.1 0-2.8"/><path d="m267 25.9c-.5-1.5-1.2-2.7-2.2-3.7-.9-1-2-1.7-3.3-2.2s-2.6-.7-4.1-.7-2.8.2-4 .7c-1.3.5-2.3 1.2-3.3 2.2-.9 1-1.7 2.2-2.2 3.7s-.8 3.3-.8 5.3.3 3.8.8 5.3 1.2 2.7 2.2 3.7c.9 1 2 1.7 3.3 2.2s2.6.7 4 .7 2.8-.2 4.1-.7 2.3-1.2 3.3-2.2c.9-1 1.7-2.2 2.2-3.7s.8-3.3.8-5.3-.3-3.8-.8-5.3m-22.4-.3c.7-1.7 1.6-3 2.9-4.2 1.2-1.1 2.7-2 4.4-2.6s3.6-.9 5.6-.9 4 .3 5.7.9 3.2 1.5 4.4 2.6 2.2 2.5 2.9 4.2 1 3.5 1 5.6-.3 4-1 5.6-1.6 3.1-2.9 4.2c-1.2 1.1-2.7 2-4.4 2.6s-3.6.8-5.7.8-3.9-.3-5.6-.8c-1.7-.6-3.2-1.4-4.4-2.6-1.2-1.1-2.2-2.5-2.9-4.2s-1-3.5-1-5.6.3-4 1-5.6"/><path d="m219.5 39.2c-.3.8-.8 1.4-1.3 2-.5.5-1.2.9-1.9 1.2s-1.5.4-2.3.4-1.3 0-2 0c-.6 0-1.2 0-1.7-.1 0-1.3-.1-2.5-.2-3.8 0-1.2 0-2.5 0-3.8v-8c0-1.2 0-2.4 0-3.5 0-1.2.1-2.3.2-3.5.3 0 .7 0 1.2-.1h1.6s1.4 0 2.2.2c.7.1 1.4.3 1.9.7.6.3 1 .8 1.4 1.4s.6 1.4.6 2.4-.2 1.9-.6 2.6-1 1.2-1.6 1.6c-.7.4-1.4.7-2.3.9 0 0-3.2.5-3.9 1.7h.9c1.2 0 2.4 0 3.4.2 1 .1 1.9.4 2.6.8s1.3.9 1.7 1.6.6 1.6.6 2.6-.2 1.9-.5 2.7m2-7.4c-1.3-1-3-1.5-5.2-1.6 1.9-.5 3.4-1.2 4.5-2.3 1.2-1 1.7-2.5 1.7-4.3s-.2-1.9-.6-2.6-1-1.2-1.7-1.7c-.7-.4-1.6-.7-2.5-.9s-2-.2-3-.2-1.3 0-2 0-1.3 0-2 0-1.2 0-1.7 0-2 0-2 3.5v1.1 4.8 6.4 4.8c0 1.6-.1 3.2-.2 4.8h1.8 1.8 1.8 1.8c1.1 0 2.2-.1 3.3-.4 1.1-.2 2.1-.6 3-1.2s1.7-1.3 2.2-2.3c.6-.9.9-2.1.9-3.5 0-2.1-.6-3.7-1.9-4.7"/><path d="m238.7 39.2c-.3.8-.8 1.4-1.3 2-.5.5-1.2.9-1.9 1.2s-1.5.4-2.3.4-1.3 0-2 0c-.6 0-1.2 0-1.7-.1 0-1.3 0-2.5-.2-3.8 0-1.2 0-2.5 0-3.8v-8c0-1.2 0-2.4 0-3.5 0-1.2.1-2.3.2-3.5.3 0 .7 0 1.2-.1h1.6s1.4 0 2.2.2c.7.1 1.4.3 1.9.7.6.3 1 .8 1.4 1.4s.6 1.4.6 2.4-.2 1.9-.6 2.6-1 1.2-1.6 1.6c-.7.4-1.4.7-2.3.9 0 0-3.2.5-3.9 1.7h.9c1.2 0 2.4 0 3.4.2 1 .1 1.9.4 2.6.8s1.3.9 1.7 1.6.6 1.6.6 2.6-.2 1.9-.5 2.7m1.9-7.4c-1.3-1-3-1.5-5.2-1.6 1.9-.5 3.4-1.2 4.5-2.3 1.2-1 1.7-2.5 1.7-4.3s-.2-1.9-.6-2.6-1-1.2-1.7-1.7c-.7-.4-1.6-.7-2.5-.9s-1.9-.2-3-.2-1.3 0-2 0-1.3 0-2 0-1.2 0-1.7 0-2 0-2 3.5v1.1 4.8 6.4 4.8c0 1.6-.1 3.2-.2 4.8h1.8 1.8 1.8 1.8c1.1 0 2.2-.1 3.3-.4 1.1-.2 2.1-.6 3-1.2s1.7-1.3 2.2-2.3c.6-.9.9-2.1.9-3.5 0-2.1-.6-3.7-1.9-4.7"/><path d="m203.2 41.4c-.5-1.1-1.1-2.4-1.7-3.9s-1.3-3-2-4.7-1.4-3.4-2.2-5.1c-.7-1.7-1.4-3.4-2.1-5.1s-1.3-3.2-1.9-4.7c-1.1-.1-2.2 1.8-2.9 3.1-1.5 3.4-2.9 6.7-4.4 10-1.3 3-2.7 6-4.1 9 0 0-1 2.2 1.8 3.9.3-1.1.8-2.6 1.5-4.3.6-1.8 1.4-3.6 2.2-5.5l.7-1.7 4.1-9.5 4.1 9.5c-.7 0-1.4 0-2.1 0s-1.4 0-2.1 0c-2.8 0-3.5 1.6-3.5 1.6h3.3s1.6 0 2.5 0h2.4c.3.8.7 1.7 1 2.6.4.9.7 1.8 1.1 2.7.2.5.4 1 .6 1.4.4.8 1.9 3.1 5 3.2h.1c-.3-.6-.7-1.5-1.2-2.6"/><path d="m310.8 18.5c-1.6 0-4.2 0-5.7 0-1.6 0-2.6 0-4.3 0s-4.6 0-6.2 0c-4.1 0-4.8 2.2-4.8 2.2.5 0 1.1-.1 1.8-.2.7 0 1.3 0 2-.1h2.7 2c0 2.6.1 5.1.1 7.7v6.4 4.8c0 1.6-.1 3.2-.2 4.7 0 0 3.6-.6 3.7-5.8 0-1.2 0-2.5 0-3.7v-6.4c0-2.6 0-5.2.1-7.7h2 2.1.5c3.2 0 4.2-2 4.2-2"/><path d="m290.1 18.5c-1.6 0-3.9 0-5.4 0-1.6 0-2.6 0-4.3 0s-4.8 0-6.4 0c-4.1 0-4.8 2.2-4.8 2.2.5 0 1.1-.1 1.8-.2.7 0 1.3 0 2-.1h2.9 2c0 2.6.1 5.1.1 7.7v6.4 4.8c0 1.6-.1 3.2-.2 4.7 0 0 3.6-.6 3.7-5.8 0-1.2 0-2.5 0-3.7v-6.4c0-2.6 0-5.2.1-7.7h2 1.8.5c3.2 0 4.2-2 4.2-2"/><path d="m71.3 19.9s9.5 9.9 3.3 26.1c0 0-4.7-13.9-3.3-26.1"/><path d="m70.6 49.3c-1.5-5.1-4.4-17-3.9-30 0-.1 0-.2 0-.4 0-3.3-2-5.2-2.6-5.6s-.1-.1-.1-.1-2.1-1.6-2.1-1.6c0 5-1.7 29 5.8 44l2.2-2.3c1.3-1.8.6-4 .6-4"/><path d="m60.6 59.9c3.5-1.4 2-4.1 2-4.4-4.9-12.4-4.9-24.9-4.9-24.9v-20c-.4-2.3-2.3-4.1-2.7-4.5l-2.2-1.8v25.9c.1 19.6 6.4 30.4 6.4 30.4l1.5-.6z"/><path d="m28.9 19.9s-9.5 9.9-3.3 26.1c0 0 4.7-13.9 3.3-26.1"/><path d="m29.6 49.3c1.5-5.1 4.4-17 3.9-30 0-.1 0-.2 0-.4 0-3.3 2-5.2 2.6-5.6s.1-.1.1-.1 2.1-1.6 2.1-1.6c0 5 1.7 29-5.8 44l-2.2-2.3c-1.3-1.8-.6-4-.6-4"/><path d="m39.6 59.9c-3.5-1.4-2-4.1-2-4.4 4.9-12.4 4.9-24.9 4.9-24.9v-20c.4-2.3 2.3-4.1 2.7-4.5l2.2-1.8v25.9c-.1 19.6-6.4 30.4-6.4 30.4l-1.5-.6z"/><path d="m165.1 52.8c-.2-.6-.5-1.2-.9-1.6s-.9-.7-1.4-.9-1.1-.3-1.7-.3-1.2.1-1.7.3-1 .5-1.4.9-.7.9-.9 1.6c-.2.6-.3 1.4-.3 2.3s.1 1.6.3 2.3c.2.6.5 1.2.9 1.6s.9.7 1.4.9 1.1.3 1.7.3 1.2 0 1.7-.3c.5-.2 1-.5 1.4-.9s.7-.9.9-1.6c.2-.6.3-1.4.3-2.3s-.1-1.6-.3-2.3m-9.5-.1c.3-.7.7-1.3 1.2-1.8s1.1-.8 1.9-1.1c.7-.3 1.5-.4 2.4-.4s1.7.1 2.4.4 1.3.6 1.9 1.1c.5.5.9 1.1 1.2 1.8s.4 1.5.4 2.4-.1 1.7-.4 2.4-.7 1.3-1.2 1.8-1.1.8-1.9 1.1c-.7.2-1.5.4-2.4.4s-1.7-.1-2.4-.4c-.7-.2-1.3-.6-1.9-1.1-.5-.5-.9-1.1-1.2-1.8s-.4-1.5-.4-2.4.1-1.7.4-2.4"/><path d="m103.3 59.8c-.2 0-.4.1-.6.2-.3 0-.7.1-1 .1-.6 0-1.2 0-1.7-.3-.5-.2-1-.5-1.4-.9s-.7-.9-.9-1.6c-.2-.6-.3-1.4-.3-2.3s.1-1.6.3-2.3c.2-.6.5-1.2.9-1.6s.9-.7 1.4-.9 1.1-.3 1.7-.3.7 0 1 .1h.2s1.6.7 2.2 0c-.4-.2-.9-.4-1.5-.5s-1.2-.2-1.9-.2-1.7.1-2.4.4-1.3.6-1.9 1.1c-.5.5-.9 1.1-1.2 1.8s-.4 1.5-.4 2.4.1 1.7.4 2.4.7 1.3 1.2 1.8 1.1.8 1.8 1.1c.7.2 1.5.4 2.3.4s.8 0 1.1 0c.4 0 .7-.1 1-.2.3 0 .5-.2.7-.3.2 0 .4-.2.4-.3-.6-.4-1.5 0-1.5 0"/><path d="m153.8 59.8c-.2 0-.4.1-.6.2-.3 0-.7.1-1 .1-.6 0-1.2 0-1.7-.3-.5-.2-1-.5-1.4-.9s-.7-.9-.9-1.6c-.2-.6-.3-1.4-.3-2.3s.1-1.6.3-2.3c.2-.6.5-1.2.9-1.6s.9-.7 1.4-.9 1.1-.3 1.7-.3.7 0 1 .1h.2s1.6.7 2.2 0c-.4-.2-.9-.4-1.5-.5s-1.2-.2-1.9-.2-1.7.1-2.4.4-1.3.6-1.9 1.1c-.5.5-.9 1.1-1.2 1.8s-.4 1.5-.4 2.4.1 1.7.4 2.4.7 1.3 1.2 1.8 1.1.8 1.8 1.1c.7.2 1.5.4 2.3.4s.8 0 1.1 0c.4 0 .7-.1 1-.2.3 0 .5-.2.7-.3.2 0 .4-.2.4-.3-.6-.4-1.5 0-1.5 0"/><path d="m110.1 50.5c1.4 0 1.6-.7 1.6-.8-.5 0-.9 0-1.4 0s-.9 0-1.4 0-.7 0-1.1 0c0 0-.2 0-.3 0-1.5-.1-1.4 1-1.4 1v1 2 2.7 2 2h1.4 2.9 1.4s-.3-.8-1.5-.7c0 0 0 0-.1 0s-.3 0-.4 0c-.4 0-.8 0-1.2 0h-1.1c0-.2 0-.5 0-.9s0-.9 0-1.5v-1.6c0-.2 0-.3 0-.4s0-.2 0-.3h.8 1 1.1 1s-.3-.9-1.6-.9c-.3 0-.6 0-1 0s-.8 0-1.2 0c0-.2 0-.5 0-.9s0-.8 0-1.2 0-.7 0-1 0-.6 0-1h1.3 1.2"/><path d="m127.8 50.5c1.4 0 1.6-.7 1.6-.8-.5 0-.9 0-1.4 0s-.9 0-1.4 0-.7 0-1.1 0c0 0-.2 0-.3 0-1.5-.1-1.4 1-1.4 1v1 2 2.7 2 2h1.4 2.9 1.4s-.3-.8-1.5-.7c0 0 0 0-.1 0s-.3 0-.4 0c-.4 0-.8 0-1.2 0h-1.1c0-.2 0-.5 0-.9s0-.9 0-1.5v-1.6c0-.2 0-.3 0-.4s0-.2 0-.3h.8 1 1.1 1s-.3-.9-1.6-.9c-.3 0-.6 0-1 0s-.8 0-1.2 0c0-.2 0-.5 0-.9s0-.8 0-1.2 0-.7 0-1 0-.6 0-1h1.3 1.2"/><path d="m121.2 57.2s0 0 0 0v.4 1 .9c-.1 0-.3.2-.5.2s-.4.1-.6.2c-.2 0-.5 0-.7 0s-.5 0-.7 0c-.7 0-1.4-.1-2-.3s-1.1-.6-1.5-1-.7-.9-.9-1.6c-.2-.6-.3-1.3-.3-2.1s.1-1.6.4-2.3c.2-.6.6-1.2 1-1.6s.9-.7 1.5-.9 1.2-.3 1.8-.3.8 0 1.1.1c.4 0 .7.2 1 .3 1.4.7 1.9-.2 1.9-.2-.2 0-.4-.2-.6-.3s-.5-.2-.8-.3c-.3 0-.7-.2-1.1-.2s-.9 0-1.4 0c-.9 0-1.8.1-2.5.4-.8.3-1.4.6-1.9 1.1s-.9 1.1-1.2 1.8-.4 1.5-.4 2.4.1 1.7.4 2.4.7 1.3 1.2 1.8 1.2.8 1.9 1c.8.2 1.6.3 2.5.3s.6 0 1 0 .7 0 1.1-.2c.4 0 .7-.1 1.1-.2.3 0 .6-.2.8-.3 0-.2 0-.4 0-.6s0-.4 0-.6c0-.9 0-1.5 0-2.1 0-.5 0-.8 0-1.1s-1.3 0-1.4 1.6"/><path d="m186.3 50.5c1.4 0 1.6-.7 1.6-.8-.5 0-.9 0-1.4 0s-.9 0-1.4 0-.7 0-1.1 0c0 0-.2 0-.3 0-1.5-.1-1.4 1-1.4 1v1 2 2.7 2 2h1.4 2.9 1.4s-.3-.8-1.5-.7c0 0 0 0-.1 0s-.3 0-.4 0c-.4 0-.8 0-1.2 0h-1.1c0-.2 0-.5 0-.9s0-.9 0-1.5v-1.6c0-.2 0-.3 0-.4s0-.2 0-.3h.8 1 1.1 1s-.3-.9-1.6-.9c-.3 0-.6 0-1 0s-.8 0-1.2 0c0-.2 0-.5 0-.9s0-.8 0-1.2 0-.7 0-1 0-.6 0-1h1.3 1.2"/><path d="m204.2 50.5c1.4 0 1.6-.7 1.6-.8-.5 0-.9 0-1.4 0s-.9 0-1.4 0-.7 0-1.1 0c0 0-.2 0-.3 0-1.5-.1-1.4 1-1.4 1v1 2 2.7 2 2h1.4 2.9 1.4s-.3-.8-1.5-.7c0 0 0 0-.1 0s-.3 0-.4 0c-.4 0-.8 0-1.2 0h-1.1c0-.2 0-.5 0-.9s0-.9 0-1.5v-1.6c0-.2 0-.3 0-.4s0-.2 0-.3h.8 1 1.1 1s-.3-.9-1.6-.9c-.3 0-.6 0-1 0s-.8 0-1.2 0c0-.2 0-.5 0-.9s0-.8 0-1.2 0-.7 0-1 0-.6 0-1h1.3 1.2"/><path d="m197.3 57.2s0 0 0 0v.4 1 .9c-.1 0-.3.2-.5.2s-.4.1-.6.2c-.2 0-.5 0-.7 0s-.5 0-.7 0c-.7 0-1.4-.1-2-.3s-1.1-.6-1.5-1-.7-.9-.9-1.6c-.2-.6-.3-1.3-.3-2.1s.1-1.6.4-2.3c.2-.6.6-1.2 1-1.6s.9-.7 1.5-.9 1.2-.3 1.8-.3.8 0 1.1.1c.4 0 .7.2 1 .3 1.4.7 1.9-.2 1.9-.2-.2 0-.4-.2-.6-.3s-.5-.2-.8-.3c-.3 0-.7-.2-1.1-.2s-.9 0-1.4 0c-.9 0-1.8.1-2.5.4-.8.3-1.4.6-1.9 1.1s-1 1.1-1.2 1.8c-.3.7-.4 1.5-.4 2.4s.1 1.7.4 2.4.7 1.3 1.2 1.8 1.2.8 1.9 1c.8.2 1.6.3 2.5.3s.6 0 1 0 .7 0 1.1-.2c.4 0 .7-.1 1.1-.2.3 0 .6-.2.8-.3 0-.2 0-.4 0-.6s0-.4 0-.6c0-.9 0-1.5 0-2.1 0-.5 0-.8 0-1.1s-1.3 0-1.4 1.6"/><path d="m137.6 51.2c-.1-.3-.3-.5-.5-.7s-.4-.4-.7-.5-.5-.2-.8-.2-.5 0-.7 0-.4 0-.6 0-.3 0-.4 0c-.2 0-.3 0-.5 0s-.4 0-.5 0c-.2 0-.3 0-.5 0-.3 0-.5 0-.8 0s-.5 0-.8 0v2 2 2.7 2 2s1.4-.5 1.4-2.2 0 0 0 0c0-.6 0-1.2 0-1.8v-6.2h1.4 1.1c.3 0 .6.2.8.3.2.2.4.4.5.7s.2.7.2 1.1 0 1-.3 1.3c-.2.3-.4.6-.7.8s-.6.4-1 .4c-1.2.1-1.6.6-1.6.6h.7 1.3c.5 0 .9-.2 1.4-.5.4-.2.8-.6 1.1-1s.4-1 .4-1.7 0-.8-.2-1.1"/><path d="m172 59.8s-.1 0-.2 0c-.7 0-1.4 0-2.1 0 0-.8 0-1.6 0-2.6s0-2.1 0-3.4 0-1.3 0-2c0 0 0-.2 0-.3 0-1.4-1.4-1.8-1.4-1.8v2 2 2.7 2 2h1.5 2.9 1.4s-.3-.8-2-.7"/><path d="m179.2 59.8s-.1 0-.2 0c-.7 0-1.4 0-2.1 0 0-.8 0-1.6 0-2.6s0-2.1 0-3.4 0-1.3 0-2c0 0 0-.2 0-.3 0-1.4-1.4-1.8-1.4-1.8v2 2 2.7 2 2h1.5 2.9 1.5s-.3-.8-2-.7"/><path d="m141.6 53.7-1.4 2.7c-.4.7-.7 1.4-1.1 2-.4.7-.7 1.3-1.1 2 .1 0 1.3.3 2-1 0-.1.1-.3.2-.4.3-.7.7-1.4 1-2.1l.7-1.4.4-.7.3-.6c.4-.7.7-1.4 1.1-2 .1-.2.2-.4.3-.6.6-1.3-.4-2.1-.4-2.1-.3.7-.6 1.4-1 2.1-.3.7-.7 1.4-1 2.1"/></svg>