<?xml version="1.0" encoding="utf-8"?>
<!-- Generator: Adobe Illustrator 29.4.0, SVG Export Plug-In . SVG Version: 9.03 Build 0)  -->
<svg version="1.1" id="Layer_1" xmlns="http://www.w3.org/2000/svg" xmlns:xlink="http://www.w3.org/1999/xlink" x="0px" y="0px"
	 viewBox="0 0 2048 434.7" style="enable-background:new 0 0 2048 434.7;" xml:space="preserve">
<style type="text/css">
	.st0{fill:#FFFFFF;}
	.st1{fill:#231F20;}
</style>
<g>
	<path class="st0" d="M529,165.1c4.8-11.6,11.5-21.4,20.2-29.4c8.6-8,19-14.1,31-18.3c12-4.2,25.2-6.3,39.5-6.3
		c14.5,0,27.7,2.1,39.8,6.3c12,4.2,22.4,10.3,31,18.3c8.6,8,15.3,17.8,20.1,29.4c4.8,11.6,7.2,24.8,7.2,39.6c0,14.8-2.4,28-7.2,39.7
		c-4.8,11.6-11.5,21.4-20.1,29.4c-8.6,8-19,14-31,17.9c-12,3.9-25.3,5.9-39.8,5.9c-14.3,0-27.5-1.9-39.5-5.9
		c-12-3.9-22.4-9.9-31-17.9c-8.6-8-15.4-17.8-20.2-29.4c-4.8-11.6-7.2-24.8-7.2-39.7C521.8,189.9,524.2,176.7,529,165.1
		 M686.7,167.2c-3.7-10.6-8.8-19.3-15.3-26.2c-6.5-6.9-14.2-12-23-15.3c-8.8-3.3-18.4-5-28.7-5c-10.1,0-19.6,1.7-28.4,5
		c-8.8,3.3-16.5,8.4-23,15.3c-6.5,6.9-11.6,15.6-15.3,26.2c-3.7,10.6-5.5,23.1-5.5,37.6c0,14.5,1.8,27,5.5,37.5
		c3.7,10.6,8.8,19.3,15.3,26.2c6.5,6.9,14.2,12,23,15.3c8.8,3.3,18.3,5,28.4,5c10.3,0,19.8-1.7,28.7-5c8.8-3.3,16.5-8.4,23-15.3
		c6.5-6.9,11.6-15.6,15.3-26.2c3.7-10.5,5.5-23,5.5-37.5C692.2,190.3,690.3,177.7,686.7,167.2"/>
	<path class="st0" d="M506.1,231.3c-0.1-8.1-0.2-16.4-0.3-24.7c-0.1-8.4-0.1-16.5-0.1-24.3c0-11.5,0.2-22.8,0.7-33.9
		c-0.1-30.3-24.2-33.9-24.2-33.9c0.5,11.5,1,22.8,1.4,33.9c0.4,11.1,0.7,22.4,0.7,33.9v72c0,10.3-0.3,19.6-0.9,28
		c-0.6,8.4-2.1,15.6-4.3,21.7c-2.3,6.1-5.6,10.9-10,14.3c0,0-6.5,6.3-19.2,12.4c9.6,0.4,18.6-1.4,25.1-4.3
		c6.5-2.9,12.2-6.9,16.9-11.9c4.7-5.1,8.3-10.9,10.9-17.4c2.5-6.6,3.8-13.8,3.8-21.6c0-6.3-0.1-13.2-0.1-20.7
		C506.3,247.2,506.2,239.4,506.1,231.3"/>
	<path class="st0" d="M792.7,192.2c9.4,0,34-0.1,42.8-0.3c8.8-0.1,17.9-0.3,27.3-0.5v-9.2c0-11.5-0.2-22.8-0.6-33.9
		c-0.1-2.6-0.2-5.2-0.3-7.9c0.1-20.8,22.7-25.6,24.5-26c-0.5,11.5-1,22.8-1.4,33.9c-0.4,11.1-0.6,22.4-0.6,33.9v45
		c0,11.5,0.2,22.9,0.6,34c0.4,11.2,0.9,22.1,1.4,33c-1.8-0.3-24.3-5.1-24.5-25.8c0.1-2.4,0.2-4.7,0.3-7.1c0.4-11.2,0.6-22.5,0.6-34
		v-23.6c-9.4-0.2-18.5-0.3-27.3-0.4c-8.8-0.1-17.9-0.1-27.3-0.1c-9.4,0-35,0.3-43.8,0.4C764.3,203.5,770.2,192.2,792.7,192.2"/>
	<path class="st0" d="M732,182.2v45c0,11.5-0.2,22.8-0.7,34c-0.4,11.2-0.9,22.1-1.4,33c1.9-0.4,24.4-5.2,24.5-26
		c-0.1-2.3-0.2-4.6-0.3-7c-0.5-11.2-0.6-22.5-0.6-34v-23.6v-12.3v-9.2c0-11.5,0.2-22.8,0.6-33.9c0.1-3.1,0.3-6.2,0.4-9.4
		c-1.2-20.4-24.6-24.5-24.6-24.5c0.5,11.5,1,22.8,1.4,33.9C731.8,159.4,732,170.7,732,182.2"/>
	<path class="st0" d="M928.4,153.7c22.7,24.1,45.3,48.3,68,72.6c18.4,19.7,35.8,39,52.5,58l0,0c0,0,0.1,0.1,0.1,0.2
		c2.4,2.7,4.7,5.3,7,8c5.6,5.3,12.7,9,13.8-4.3c0-4,0-8.6-0.1-13.9c-0.1-5.7-0.2-11.8-0.3-18.3c-0.1-6.5-0.2-13-0.3-19.5
		c-0.1-6.5-0.1-12.6-0.1-18.6v-15.7c0-5.1,0.2-11.8,0.5-20.1c0.3-8.4,0.7-16.9,1.2-25.6c0.4-8.7,0.9-16.9,1.3-24.6
		c0.4-7.3,0.8-12.8,1.1-16.6c-3.2,1-5.6,1.7-5.6,1.7s-16.2,5.7-16,26.7c0.2,6.5,0.4,13.2,0.5,20c0.3,17.3,0.4,35.2,0.4,53.5v35.6
		c-8-8-17.4-17.7-28.1-29.2c-10.7-11.4-22.1-23.6-34-36.4c-11-11.8-49.2-49.9-64.6-66.1c-14.7-13.4-15,2.4-15,2.4h0
		c0.1,4.3,0.2,9.1,0.2,14.6c0.1,12,0.1,26.4,0.1,43.2c0,5.8-0.1,12.3-0.2,19.6c-0.2,7.3-0.4,14.8-0.7,22.5c-0.3,7.7-0.6,15.4-1,23
		c-0.4,6.7-0.7,12.9-1,18.7c0.3,7.3,3.2,22.3,22,29.2c-0.2-1.4-0.3-4.1-0.5-8c-0.2-3.9-0.3-8.5-0.5-13.7c-0.2-5.2-0.3-10.9-0.5-17
		c-0.2-6.1-0.3-12.1-0.4-18c-0.1-5.9-0.2-11.6-0.3-17c-0.1-5.4-0.1-10-0.1-13.6c0-14.1,0.1-25.3,0.3-33.5
		C928,165.1,928.2,158.6,928.4,153.7"/>
	<path class="st0" d="M1565.8,164.9c4.8-11.6,11.5-21.4,20.2-29.4c8.6-8,19-14.1,31-18.3c12-4.2,25.2-6.3,39.5-6.3
		c14.5,0,27.8,2.1,39.8,6.3c12,4.2,22.4,10.3,31,18.3c8.6,8,15.3,17.8,20.1,29.4c4.8,11.6,7.2,24.8,7.2,39.6c0,14.8-2.4,28-7.2,39.7
		c-4.8,11.6-11.5,21.4-20.1,29.4c-8.6,8-19,14-31,17.9c-12,3.9-25.3,5.9-39.8,5.9c-14.3,0-27.5-2-39.5-5.9c-12-3.9-22.4-9.9-31-17.9
		c-8.6-8-15.4-17.8-20.2-29.4c-4.8-11.6-7.2-24.8-7.2-39.7C1558.6,189.7,1561,176.5,1565.8,164.9 M1723.5,167
		c-3.7-10.6-8.8-19.3-15.3-26.2c-6.5-6.9-14.2-12-23-15.3c-8.8-3.3-18.4-5-28.7-5c-10.1,0-19.6,1.7-28.4,5
		c-8.8,3.3-16.5,8.4-23,15.3c-6.5,6.9-11.6,15.6-15.3,26.2c-3.7,10.6-5.5,23.1-5.5,37.6c0,14.5,1.8,27,5.5,37.5
		c3.7,10.6,8.8,19.3,15.3,26.2c6.5,6.9,14.2,12,23,15.3c8.8,3.3,18.3,5,28.4,5c10.3,0,19.8-1.7,28.7-5c8.8-3.3,16.5-8.4,23-15.3
		c6.5-6.9,11.7-15.6,15.3-26.2c3.7-10.5,5.5-23,5.5-37.5C1729,190.1,1727.2,177.5,1723.5,167"/>
	<path class="st0" d="M1403.5,209.5c-9-6.8-21.2-10.5-36.8-11.3v-0.5c13.1-3,23.7-8.1,31.8-15.4c8.1-7.3,12.2-17.4,12.2-30.4
		c0-7.3-1.5-13.4-4.4-18.3c-3-4.9-7-8.7-12-11.6c-5-2.9-10.9-4.9-17.5-6c-6.6-1.1-13.7-1.7-21.2-1.7c-4.5,0-9.2,0.2-13.9,0.6
		c-4.7,0.4-9.3,0.7-13.9,0.7c-4,0-8.1-0.1-12.3-0.3c0,0-0.1,0.1-0.1,0.1s-14.2,0-14.2,24.9h0c0.1,2.5,0.2,5.1,0.3,7.6
		c0.4,11.2,0.7,22.5,0.7,34v45c0,11.5-0.2,22.8-0.7,33.9c-0.4,11.1-0.9,22.2-1.4,33.4c4.2-0.4,8.4-0.5,12.7-0.5h12.7
		c4.2,0,8.4,0.1,12.7,0.3c4.3,0.2,8.5,0.3,12.7,0.3c7.7,0,15.4-0.8,23.2-2.5c7.8-1.7,14.9-4.5,21.3-8.6c6.4-4.1,11.7-9.5,15.7-16.1
		c4-6.6,6-14.8,6-24.6C1417,227.2,1412.5,216.3,1403.5,209.5 M1389.5,259.8c-2.3,5.5-5.3,10.1-9.2,13.9c-3.8,3.8-8.3,6.6-13.5,8.5
		c-5.1,1.9-10.5,2.9-16.1,2.9c-4.7,0-9.3-0.2-13.9-0.4c-4.5-0.3-8.5-0.6-11.8-0.9c-0.3-8.9-0.7-17.7-1-26.4
		c-0.3-8.7-0.5-17.5-0.5-26.4v-26.7v-9.7v-19.6c0-8.4,0.2-16.7,0.5-24.9c0.3-8.2,0.7-16.5,1-24.9c2.4-0.3,5.2-0.6,8.4-0.9
		c3.1-0.3,7-0.4,11.5-0.4c5,0,10.1,0.4,15.2,1.2c5,0.8,9.6,2.4,13.6,4.7c4,2.4,7.3,5.7,10,10c2.6,4.3,3.9,10,3.9,17.1
		c0,7.3-1.4,13.4-4.3,18.2c-2.9,4.8-6.7,8.6-11.4,11.5c-4.7,2.9-10.1,5-16.1,6.1c0,0-22.6,3.6-27.1,11.8l6.6-0.2
		c8.7,0,16.6,0.5,23.7,1.6c7.1,1,13.1,2.9,18.2,5.6c5.1,2.7,8.9,6.5,11.6,11.3c2.7,4.8,4.1,10.9,4.1,18.4
		C1392.9,248.1,1391.8,254.4,1389.5,259.8"/>
	<path class="st0" d="M1538.3,209.5c-9-6.8-21.2-10.5-36.8-11.3v-0.5c13.1-3,23.7-8.1,31.8-15.4c8.1-7.3,12.2-17.4,12.2-30.4
		c0-7.3-1.5-13.4-4.5-18.3c-3-4.9-7-8.7-12-11.6c-5-2.9-10.9-4.9-17.5-6c-6.6-1.1-13.7-1.7-21.2-1.7c-4.5,0-9.2,0.2-13.9,0.6
		c-4.7,0.4-9.3,0.7-13.9,0.7c-4,0-8.1-0.1-12.3-0.3c0,0-0.1,0.1-0.1,0.1s-14.2,0-14.2,24.9h0c0.1,2.5,0.2,5.1,0.3,7.6
		c0.4,11.2,0.6,22.5,0.6,34v45c0,11.5-0.2,22.8-0.6,33.9c-0.4,11.1-0.9,22.2-1.5,33.4c4.2-0.4,8.4-0.5,12.7-0.5h12.7
		c4.2,0,8.4,0.1,12.7,0.3c4.3,0.2,8.5,0.3,12.7,0.3c7.7,0,15.4-0.8,23.2-2.5c7.8-1.7,14.9-4.5,21.3-8.6c6.5-4.1,11.7-9.5,15.7-16.1
		c4-6.6,6-14.8,6-24.6C1551.8,227.2,1547.3,216.3,1538.3,209.5 M1524.3,259.8c-2.3,5.5-5.3,10.1-9.2,13.9c-3.8,3.8-8.3,6.6-13.5,8.5
		c-5.1,1.9-10.5,2.9-16.1,2.9c-4.7,0-9.4-0.2-13.9-0.4c-4.5-0.3-8.5-0.6-11.8-0.9c-0.3-8.9-0.7-17.7-1.1-26.4
		c-0.3-8.7-0.5-17.5-0.5-26.4v-26.7v-9.7v-19.6c0-8.4,0.2-16.7,0.5-24.9c0.4-8.2,0.7-16.5,1.1-24.9c2.4-0.3,5.2-0.6,8.4-0.9
		c3.1-0.3,7-0.4,11.5-0.4c5,0,10.1,0.4,15.2,1.2c5,0.8,9.6,2.4,13.6,4.7c4,2.4,7.3,5.7,9.9,10c2.6,4.3,3.9,10,3.9,17.1
		c0,7.3-1.4,13.4-4.3,18.2c-2.9,4.8-6.7,8.6-11.4,11.5c-4.7,2.9-10.1,5-16.1,6.1c0,0-22.6,3.6-27.1,11.8l6.6-0.2
		c8.7,0,16.6,0.5,23.7,1.6c7.1,1,13.1,2.9,18.2,5.6c5.1,2.7,8.9,6.5,11.6,11.3c2.7,4.8,4.1,10.9,4.1,18.4
		C1527.7,248.1,1526.6,254.4,1524.3,259.8"/>
	<path class="st0" d="M1275.4,275.7c-3.6-8-7.6-17.1-12-27.3c-4.5-10.2-9.2-21.2-14.2-33.1c-5.1-11.9-10.1-23.8-15.2-35.9
		c-5.1-12-10-23.9-14.9-35.7c-4.9-11.8-9.4-22.7-13.6-32.8c-7.8-0.7-15.8,12.9-20.2,21.8c-10.4,23.7-20.7,47.2-31,70.3
		c-9.4,21.1-19,42.3-28.7,63.5c0,0-7.3,15.2,12.4,27.5c2.3-8,5.7-18.2,10.2-30.5c4.5-12.3,9.6-25.3,15.2-38.8l5-12.1l28.5-66.5
		l29,66.5c-4.9,0.2-9.8,0.3-14.7,0.4c-4.9,0.1-9.8,0.1-14.6,0.1c-19.4,0.2-24.3,11.2-24.3,11.2c5.2-0.1,17.6-0.3,23-0.3
		c5.8,0,11.5,0,17.3,0.1c5.7,0.1,11.4,0.2,17,0.4c2.3,5.7,4.7,11.8,7.3,18.2c2.6,6.4,5.2,12.7,7.7,18.9c1.4,3.5,2.7,6.8,4,10.1
		c3.1,5.8,13.6,21.8,34.8,22.2c0.3,0,0.5-0.1,0.8-0.1C1281.9,289.8,1279,283.7,1275.4,275.7"/>
	<path class="st0" d="M2031,114.7c-11.5,0.3-29.3,0.2-40.3,0.5c-11,0.3-18.6,0.4-30.1,0.4c-11.5,0-32.3-0.1-43.3-0.4
		c-29-0.5-33.8,15.6-33.8,15.6c3.7-0.5,7.8-1,12.4-1.3c4.6-0.3,9.4-0.7,14.4-0.9c5-0.3,13.9-0.4,18.8-0.5c5-0.1,9.8-0.1,14.3-0.1
		c0.5,18,0.8,36,0.8,54.2v45c0,11.5-0.2,22.9-0.7,34c-0.4,11.2-0.9,22.1-1.4,33c0,0,25-4.5,26-40.8c-0.2-8.6-0.4-17.4-0.4-26.2v-45
		c0-18.1,0.2-36.2,0.8-54.2c4.5,0,9.3,0.1,14.2,0.1c5,0.1,10,0.3,14.9,0.5c1.3,0.1,2.5,0.2,3.9,0.2
		C2024.3,129,2031,114.7,2031,114.7"/>
	<path class="st0" d="M1885.8,114.7c-11.5,0.3-27.1,0.2-38.1,0.5c-11,0.3-18.6,0.4-30.1,0.4s-34-0.1-45-0.4
		c-29-0.5-33.7,15.6-33.7,15.6c3.7-0.5,7.8-1,12.4-1.3c4.6-0.3,9.4-0.7,14.4-0.9c5-0.3,15.6-0.4,20.6-0.5c5-0.1,9.7-0.1,14.3-0.1
		c0.5,18,0.8,36,0.8,54.2v45c0,11.5-0.2,22.9-0.7,34c-0.4,11.2-0.9,22.1-1.4,33c0,0,25-4.5,26-40.8c-0.3-8.6-0.4-17.4-0.4-26.2v-45
		c0-18.1,0.2-36.2,0.8-54.2c4.5,0,9.3,0.1,14.3,0.1c5,0.1,7.8,0.3,12.7,0.5c1.3,0.1,2.6,0.2,3.9,0.2
		C1879.1,129,1885.8,114.7,1885.8,114.7"/>
	<path class="st0" d="M348.6,124.3c0,0,66.7,69.7,23,183.2C371.6,307.5,338.9,209.7,348.6,124.3"/>
	<path class="st0" d="M343.9,331.1L343.9,331.1c-10.3-35.5-30.9-119.2-27.2-210.7c0-0.8,0-1.7,0-2.7c0.6-23.4-14-36.2-18-39.2
		l-0.2-0.1c-0.5-0.4-0.8-0.6-0.8-0.6l0,0l-14.4-11.2c0.7,35.4-11.7,203.6,40.8,309l15.6-16.3C349.1,346.4,343.9,331.1,343.9,331.1"
		/>
</g>
<g>
	<path class="st0" d="M273.4,405.6c24.6-9.6,14.2-28.6,13.7-31.2c-34.3-86.8-34.6-174.7-34.6-174.7l-1-140.5
		c-1.9-16.4-15-28.9-17.7-31.4l-15.4-12.9l-0.6,181.6c1.5,137.9,45.4,213.5,45.4,213.5L273.4,405.6L273.4,405.6z"/>
	<path class="st0" d="M51.1,124.3c0,0-66.7,69.7-23,183.2C28.1,307.5,60.8,209.7,51.1,124.3"/>
</g>
<g>
	<path class="st0" d="M55.7,331.1L55.7,331.1c10.3-35.5,30.9-119.2,27.1-210.7c0-0.8,0-1.7,0-2.7c-0.6-23.4,14-36.2,18-39.2l0.2-0.1
		c0.5-0.4,0.8-0.6,0.8-0.6l0,0l14.4-11.2c-0.7,35.4,11.7,203.6-40.8,309l-15.6-16.3C50.6,346.4,55.7,331.1,55.7,331.1"/>
	<path class="st0" d="M126.3,405.6c-24.6-9.6-14.2-28.6-13.7-31.2c34.3-86.8,34.6-174.7,34.6-174.7l1-140.5
		c1.9-16.4,15-28.9,17.7-31.4l15.4-12.9l0.6,181.6c-1.5,137.9-45.4,213.5-45.4,213.5L126.3,405.6L126.3,405.6z"/>
	<path class="st0" d="M941.2,355.1c2-4.9,4.9-9.1,8.5-12.4c3.7-3.4,8-6,13.1-7.7c5.1-1.8,10.6-2.7,16.7-2.7c6.1,0,11.7,0.9,16.8,2.7
		c5.1,1.8,9.5,4.3,13.1,7.7c3.7,3.4,6.5,7.5,8.5,12.4c2,4.9,3,10.5,3,16.7c0,6.3-1,11.8-3,16.7c-2,4.9-4.9,9.1-8.5,12.5
		c-3.6,3.4-8,5.9-13.1,7.6c-5.1,1.7-10.7,2.5-16.8,2.5c-6.1,0-11.6-0.8-16.7-2.5c-5.1-1.6-9.4-4.2-13.1-7.6
		c-3.7-3.4-6.5-7.6-8.5-12.5c-2-4.9-3-10.5-3-16.7C938.2,365.5,939.2,359.9,941.2,355.1 M1007.8,355.9c-1.5-4.5-3.7-8.1-6.5-11.1
		c-2.8-2.9-6-5.1-9.7-6.5c-3.7-1.4-7.8-2.1-12.1-2.1c-4.3,0-8.3,0.7-12,2.1c-3.7,1.4-7,3.6-9.7,6.5c-2.7,2.9-4.9,6.6-6.5,11.1
		c-1.6,4.5-2.3,9.8-2.3,15.9c0,6.1,0.8,11.4,2.3,15.9c1.5,4.5,3.7,8.1,6.5,11.1c2.8,2.9,6,5.1,9.7,6.5c3.7,1.4,7.7,2.1,12,2.1
		c4.3,0,8.4-0.7,12.1-2.1c3.7-1.4,7-3.6,9.7-6.5c2.8-2.9,4.9-6.6,6.5-11.1c1.6-4.4,2.3-9.7,2.3-15.9
		C1010.1,365.7,1009.4,360.4,1007.8,355.9"/>
	<path class="st0" d="M573.8,404.9L573.8,404.9c-1.3,0.5-2.6,1-4.1,1.5c-2.3,0.7-4.7,1-7.4,1c-4.3,0-8.4-0.7-12.1-2.1
		c-3.7-1.4-7-3.6-9.7-6.5c-2.8-2.9-4.9-6.6-6.5-11.1c-1.5-4.5-2.3-9.7-2.3-15.9c0-6.1,0.8-11.4,2.3-15.8c1.5-4.5,3.7-8.1,6.5-11.1
		c2.8-2.9,6-5.1,9.7-6.5c3.7-1.4,7.8-2.1,12.1-2.1c2.7,0,5.1,0.4,7.3,1c0.4,0.1,0.8,0.3,1.1,0.4l0,0c0,0,11.5,4.8,15.6-0.4
		c-3.1-1.4-6.7-2.6-10.7-3.6c-4-1-8.5-1.5-13.3-1.5c-6.1,0-11.7,0.9-16.8,2.7c-5.1,1.8-9.4,4.4-13.1,7.7c-3.7,3.4-6.5,7.5-8.5,12.4
		c-2,4.9-3,10.5-3,16.7c0,6.3,1,11.9,3,16.8c2,4.9,4.8,9.1,8.4,12.4c3.6,3.4,7.8,5.9,12.8,7.6c4.9,1.7,10.3,2.5,16.1,2.5
		c2.7,0,5.3-0.2,7.9-0.7c2.5-0.5,4.8-1,6.8-1.5c2-0.6,3.8-1.2,5.2-1.9c1.4-0.7,2.5-1.3,3.1-1.9C580.3,402,573.8,404.9,573.8,404.9"
		/>
	<path class="st0" d="M928.1,404.9L928.1,404.9c-1.3,0.5-2.6,1-4.1,1.5c-2.2,0.7-4.7,1-7.4,1c-4.3,0-8.4-0.7-12.1-2.1
		c-3.7-1.4-7-3.6-9.7-6.5c-2.8-2.9-4.9-6.6-6.5-11.1c-1.5-4.5-2.3-9.7-2.3-15.9c0-6.1,0.8-11.4,2.3-15.8c1.6-4.5,3.7-8.1,6.5-11.1
		c2.8-2.9,6-5.1,9.7-6.5c3.7-1.4,7.8-2.1,12.1-2.1c2.7,0,5.1,0.4,7.3,1c0.4,0.1,0.7,0.3,1.1,0.4l0,0c0,0,11.5,4.8,15.5-0.4
		c-3.1-1.4-6.6-2.6-10.7-3.6c-4-1-8.5-1.5-13.3-1.5c-6.1,0-11.7,0.9-16.8,2.7c-5.1,1.8-9.5,4.4-13.1,7.7c-3.7,3.4-6.5,7.5-8.5,12.4
		c-2,4.9-3,10.5-3,16.7c0,6.3,1,11.9,3,16.8c2,4.9,4.8,9.1,8.4,12.4c3.6,3.4,7.8,5.9,12.8,7.6c4.9,1.7,10.3,2.5,16.1,2.5
		c2.7,0,5.3-0.2,7.8-0.7c2.5-0.5,4.8-1,6.8-1.5c2-0.6,3.8-1.2,5.2-1.9c1.4-0.7,2.5-1.3,3.1-1.9C934.6,402,928.1,404.9,928.1,404.9"
		/>
	<path class="st0" d="M621.4,339.5c9.9-0.3,11-5,11.1-5.7c0,0,0-0.1,0-0.1c-3.3,0.1-6.6,0.3-9.8,0.4c-3.2,0.1-6.5,0.1-9.8,0.1
		c-2.6,0-5.3-0.1-7.9-0.1c-0.6,0-1.2,0-2,0c-10.4-0.8-9.5,7.1-9.5,7.1l0,0c0.1,2.2,0.2,4.5,0.3,6.7c0.2,4.7,0.3,9.5,0.3,14.4v19
		c0,4.8-0.1,9.6-0.3,14.3c-0.2,4.7-0.4,9.4-0.6,14.1c3.4-0.2,6.7-0.2,10.1-0.2h10.1h10c3.3,0,6.6,0.1,9.9,0.2c0,0-2-5.3-10.5-5.1
		c-0.3,0-0.5,0-0.7,0c-0.9,0.1-1.8,0.1-2.7,0.1c-2.7,0.1-5.4,0.2-8.2,0.2h-7.8c-0.1-1.4-0.1-3.5-0.2-6.2c0-2.7-0.1-6.2-0.1-10.4
		v-6.6v-4.3c0-1.2,0-2.2,0.1-2.9c0-0.8,0.1-1.5,0.1-2.2c1.3,0,3.1,0,5.4,0c2.3,0.1,4.7,0.1,7.2,0.1c2.5,0,5.1,0.1,7.6,0.3
		c2.5,0.1,4.8,0.3,6.7,0.5c0,0-1.8-6-11.1-6c-2.1,0.1-4.5,0.2-7.1,0.3c-2.6,0.1-5.5,0.1-8.7,0.1c0-1.4,0-3.5-0.1-6.2
		c0-2.7-0.1-5.5-0.1-8.4c0-2.7,0.1-5.2,0.2-7.3c0.1-2.1,0.2-4.4,0.3-6.7c3.6,0,6.7,0.1,9.3,0.2C612.8,339.1,619.3,339.6,621.4,339.5
		"/>
	<path class="st0" d="M745.9,339.5c9.9-0.3,11-5,11.1-5.7c0,0,0-0.1,0-0.1c-3.3,0.1-6.6,0.3-9.8,0.4c-3.2,0.1-6.5,0.1-9.8,0.1
		c-2.6,0-5.3-0.1-7.9-0.1c-0.6,0-1.2,0-2,0c-10.4-0.8-9.5,7.1-9.5,7.1l0,0c0.1,2.2,0.2,4.5,0.3,6.7c0.2,4.7,0.3,9.5,0.3,14.4v19
		c0,4.8-0.1,9.6-0.3,14.3c-0.2,4.7-0.4,9.4-0.6,14.1c3.4-0.2,6.7-0.2,10.1-0.2h10h10c3.3,0,6.6,0.1,9.9,0.2c0,0-2-5.3-10.5-5.1
		c-0.3,0-0.5,0-0.7,0c-0.9,0.1-1.8,0.1-2.7,0.1c-2.7,0.1-5.4,0.2-8.2,0.2h-7.7c-0.1-1.4-0.1-3.5-0.2-6.2c0-2.7-0.1-6.2-0.1-10.4
		v-6.6v-4.3c0-1.2,0-2.2,0.1-2.9c0-0.8,0.1-1.5,0.1-2.2c1.3,0,3.1,0,5.4,0c2.2,0.1,4.6,0.1,7.2,0.1c2.5,0,5.1,0.1,7.6,0.3
		c2.5,0.1,4.8,0.3,6.7,0.5c0,0-1.8-6-11-6c-2.1,0.1-4.5,0.2-7.1,0.3c-2.6,0.1-5.5,0.1-8.7,0.1c0-1.4,0-3.5-0.1-6.2
		c0-2.7-0.1-5.5-0.1-8.4c0-2.7,0.1-5.2,0.2-7.3c0.1-2.1,0.2-4.4,0.3-6.7c3.6,0,6.7,0.1,9.3,0.2C737.3,339.1,743.7,339.6,745.9,339.5
		"/>
	<path class="st0" d="M699.3,386.8c0,0,0,0.1,0,0.1c0,1,0.1,2,0.1,3c0,2.3,0,4.5-0.1,6.7c0,2.2-0.1,4.4-0.2,6.6
		c-0.9,0.6-2.1,1.1-3.5,1.6c-1.4,0.4-2.8,0.8-4.4,1.1c-1.6,0.3-3.2,0.5-4.9,0.7c-1.7,0.1-3.3,0.2-4.9,0.2c-5.1,0-9.8-0.8-13.9-2.4
		c-4.1-1.6-7.6-3.9-10.4-6.9c-2.8-3-5-6.7-6.5-11c-1.5-4.3-2.2-9.2-2.2-14.6c0-6.1,0.8-11.4,2.5-15.8c1.7-4.5,3.9-8.1,6.9-11.1
		c2.9-2.9,6.3-5.1,10.3-6.5c3.9-1.4,8.2-2.1,12.8-2.1c2.8,0,5.4,0.3,7.9,0.9c2.5,0.6,4.7,1.4,6.7,2.4c9.8,5,13.5-1.1,13.5-1.1
		c-1.3-0.7-2.8-1.3-4.5-2.1c-1.7-0.7-3.7-1.4-5.9-2.1c-2.3-0.7-4.8-1.2-7.7-1.6c-2.9-0.4-6.2-0.6-10-0.6c-6.5,0-12.4,0.9-17.8,2.7
		c-5.3,1.8-9.9,4.4-13.6,7.7c-3.8,3.4-6.7,7.5-8.7,12.4c-2.1,4.9-3.1,10.5-3.1,16.7c0,6.5,1,12.2,3,17.2c2,4.9,4.8,9.1,8.5,12.4
		c3.7,3.3,8.2,5.8,13.4,7.4c5.3,1.6,11.2,2.4,17.8,2.4c2.1,0,4.5-0.2,7.1-0.5c2.6-0.3,5.2-0.7,7.9-1.1c2.6-0.4,5.1-0.9,7.4-1.5
		c2.3-0.6,4.3-1.2,5.8-1.8c0-1.5,0-3-0.1-4.5c0-1.5-0.1-3-0.1-4.5c0-6,0-10.8,0.1-14.4c0.1-3.4,0.2-5.9,0.3-7.6l0,0
		C708.8,375.2,699.5,375.4,699.3,386.8"/>
	<path class="st0" d="M1156.3,339.5c9.9-0.3,11-5,11.1-5.7c0,0,0-0.1,0-0.1c-3.3,0.1-6.6,0.3-9.8,0.4c-3.2,0.1-6.5,0.1-9.8,0.1
		c-2.6,0-5.2-0.1-7.9-0.1c-0.6,0-1.2,0-2,0c-10.4-0.8-9.5,7.1-9.5,7.1l0,0c0.1,2.2,0.2,4.5,0.3,6.7c0.2,4.7,0.3,9.5,0.3,14.4v19
		c0,4.8-0.1,9.6-0.3,14.3c-0.2,4.7-0.4,9.4-0.6,14.1c3.4-0.2,6.8-0.2,10.1-0.2h10.1h10c3.3,0,6.6,0.1,9.9,0.2c0,0-2-5.3-10.5-5.1
		c-0.3,0-0.5,0-0.7,0c-0.9,0.1-1.8,0.1-2.7,0.1c-2.7,0.1-5.4,0.2-8.2,0.2h-7.8c-0.1-1.4-0.1-3.5-0.2-6.2c0-2.7-0.1-6.2-0.1-10.4
		v-6.6v-4.3c0-1.2,0-2.2,0.1-2.9c0-0.8,0.1-1.5,0.1-2.2c1.3,0,3.1,0,5.4,0c2.3,0.1,4.7,0.1,7.2,0.1c2.6,0,5.1,0.1,7.6,0.3
		c2.5,0.1,4.8,0.3,6.7,0.5c0,0-1.8-6-11-6c-2.1,0.1-4.5,0.2-7.1,0.3c-2.6,0.1-5.5,0.1-8.7,0.1c0-1.4,0-3.5-0.1-6.2
		c0-2.7-0.1-5.5-0.1-8.4c0-2.7,0.1-5.2,0.2-7.3c0.1-2.1,0.2-4.4,0.3-6.7c3.6,0,6.7,0.1,9.3,0.2
		C1147.7,339.1,1154.1,339.6,1156.3,339.5"/>
	<path class="st0" d="M1282,339.5c9.9-0.3,11-5,11.1-5.7c0,0,0-0.1,0-0.1c-3.3,0.1-6.6,0.3-9.8,0.4c-3.2,0.1-6.5,0.1-9.8,0.1
		c-2.6,0-5.3-0.1-7.9-0.1c-0.6,0-1.2,0-2,0c-10.4-0.8-9.5,7.1-9.5,7.1l0,0c0.1,2.2,0.2,4.5,0.3,6.7c0.2,4.7,0.3,9.5,0.3,14.4v19
		c0,4.8-0.1,9.6-0.3,14.3c-0.2,4.7-0.4,9.4-0.6,14.1c3.4-0.2,6.7-0.2,10.1-0.2h10h10c3.3,0,6.6,0.1,9.9,0.2c0,0-2-5.3-10.5-5.1
		c-0.3,0-0.5,0-0.7,0c-0.9,0.1-1.8,0.1-2.7,0.1c-2.7,0.1-5.4,0.2-8.2,0.2h-7.7c-0.1-1.4-0.1-3.5-0.2-6.2c-0.1-2.7-0.1-6.2-0.1-10.4
		v-6.6v-4.3c0-1.2,0-2.2,0.1-2.9c0-0.8,0.1-1.5,0.1-2.2c1.3,0,3.1,0,5.4,0c2.3,0.1,4.6,0.1,7.2,0.1c2.5,0,5.1,0.1,7.6,0.3
		c2.5,0.1,4.8,0.3,6.7,0.5c0,0-1.8-6-11-6c-2.1,0.1-4.5,0.2-7.1,0.3c-2.6,0.1-5.5,0.1-8.7,0.1c0-1.4,0-3.5-0.1-6.2
		c-0.1-2.7-0.1-5.5-0.1-8.4c0-2.7,0.1-5.2,0.2-7.3c0.1-2.1,0.2-4.4,0.3-6.7c3.6,0,6.7,0.1,9.3,0.2
		C1273.4,339.1,1279.8,339.6,1282,339.5"/>
	<path class="st0" d="M1234.1,386.8c0,0,0,0.1,0,0.1c0,1,0.1,2,0.1,3c0,2.3,0,4.5-0.1,6.7c0,2.2-0.1,4.4-0.2,6.6
		c-1,0.6-2.1,1.1-3.5,1.6c-1.4,0.4-2.8,0.8-4.4,1.1c-1.6,0.3-3.2,0.5-4.9,0.7c-1.7,0.1-3.3,0.2-4.9,0.2c-5.1,0-9.8-0.8-13.8-2.4
		c-4.1-1.6-7.6-3.9-10.4-6.9c-2.8-3-5-6.7-6.5-11c-1.5-4.3-2.2-9.2-2.2-14.6c0-6.1,0.8-11.4,2.5-15.8c1.7-4.5,3.9-8.1,6.9-11.1
		c2.9-2.9,6.3-5.1,10.3-6.5c3.9-1.4,8.2-2.1,12.8-2.1c2.8,0,5.4,0.3,7.9,0.9c2.5,0.6,4.7,1.4,6.7,2.4c9.8,5,13.5-1.1,13.5-1.1
		c-1.3-0.7-2.8-1.3-4.5-2.1c-1.7-0.7-3.7-1.4-5.9-2.1c-2.2-0.7-4.8-1.2-7.7-1.6c-2.9-0.4-6.2-0.6-10-0.6c-6.5,0-12.4,0.9-17.8,2.7
		c-5.3,1.8-9.9,4.4-13.6,7.7c-3.8,3.4-6.7,7.5-8.7,12.4c-2.1,4.9-3.1,10.5-3.1,16.7c0,6.5,1,12.2,3,17.2c2,4.9,4.8,9.1,8.5,12.4
		c3.7,3.3,8.2,5.8,13.4,7.4c5.3,1.6,11.2,2.4,17.8,2.4c2.1,0,4.5-0.2,7.1-0.5c2.6-0.3,5.2-0.7,7.8-1.1c2.6-0.4,5.1-0.9,7.4-1.5
		c2.3-0.6,4.3-1.2,5.8-1.8c0-1.5,0-3-0.1-4.5c0-1.5,0-3,0-4.5c0-6,0-10.8,0.1-14.4c0.1-3.4,0.2-5.9,0.3-7.6l0,0
		C1243.7,375.2,1234.4,375.4,1234.1,386.8"/>
	<path class="st0" d="M814.6,344.6c-0.9-2.1-2-3.8-3.5-5.3c-1.4-1.4-3-2.5-4.8-3.2c-1.8-0.8-3.6-1.3-5.4-1.7
		c-1.8-0.4-3.5-0.6-5.1-0.6c-1.6-0.1-3-0.1-4.1-0.1c-0.8,0-1.8,0-3,0.1c-1.2,0.1-2.4,0.1-3.7,0.1c-1.3,0-2.6,0.1-3.8,0.2
		c-1.2,0.1-2.3,0.1-3.2,0.1c-1.8,0-3.6-0.1-5.4-0.1c-1.8-0.1-3.6-0.2-5.4-0.4c0.2,4.9,0.4,9.6,0.6,14.3c0.2,4.7,0.3,9.5,0.3,14.3v19
		c0,4.9-0.1,9.6-0.3,14.4c-0.2,4.7-0.4,9.4-0.6,13.9c0,0,10.2-3.7,10.2-15.5c0-0.1,0-0.1,0-0.1c-0.1-4.2-0.2-8.4-0.2-12.6v-6.1v-4.6
		v-32.8h10c2.9,0,5.4,0.2,7.7,0.6c2.3,0.4,4.2,1.2,5.8,2.3c1.6,1.1,2.8,2.7,3.7,4.7c0.9,2,1.3,4.6,1.3,7.7c0,3.7-0.6,6.8-1.9,9.2
		c-1.3,2.4-3,4.3-5,5.6c-2,1.4-4.2,2.6-6.7,2.8c-8.3,0.9-11,4.5-11,4.5l5,0.3c2.7,0,5.7-0.3,9.1-0.9c3.4-0.6,6.7-1.7,9.7-3.4
		c3.1-1.7,5.6-4.1,7.7-7.1c2.1-3,3.2-7,3.2-11.8C816,349.3,815.5,346.7,814.6,344.6"/>
	<path class="st0" d="M1056.4,404.5h-0.2c-0.5,0-1,0-1.6,0.1c-4.8,0.1-9.8,0.2-15,0.2c-0.1-5.4-0.1-11.5-0.2-18.3
		c-0.1-6.8-0.1-14.9-0.1-24.2c0-4.8,0.1-9.5,0.3-14c-0.1-0.6-0.1-1.3-0.1-2.1c-0.2-10.2-10.1-12.4-10.1-12.4
		c0.2,4.9,0.4,9.6,0.6,14.3c0.2,4.7,0.3,9.4,0.3,14.3v19c0,4.9-0.1,9.7-0.3,14.4c-0.2,4.7-0.4,9.4-0.6,13.9c3.5-0.1,7-0.2,10.2-0.2
		h10.2h10.2c3.4,0,6.8,0.1,10.2,0.2C1070.1,409.6,1068,404.3,1056.4,404.5"/>
</g>
<g>
	<path class="st0" d="M1106.7,404.5h-0.2c-0.5,0-1,0-1.6,0.1c-4.8,0.1-9.8,0.2-15,0.2c-0.1-5.4-0.1-11.5-0.2-18.3
		c-0.1-6.8-0.1-14.9-0.1-24.2c0-4.8,0.1-9.5,0.3-14c-0.1-0.6-0.1-1.3-0.2-2.1c-0.2-10.2-10.1-12.4-10.1-12.4
		c0.2,4.9,0.4,9.6,0.6,14.3c0.2,4.7,0.3,9.4,0.3,14.3v19c0,4.9-0.1,9.7-0.3,14.4c-0.2,4.7-0.4,9.4-0.6,13.9c3.5-0.1,7-0.2,10.2-0.2
		h10.2h10.2c3.4,0,6.8,0.1,10.2,0.2C1120.5,409.6,1118.3,404.3,1106.7,404.5"/>
	<path class="st0" d="M842.7,362.3l-9.7,19.2c-2.5,4.9-5,9.7-7.5,14.4c-2.5,4.7-5.1,9.3-7.6,13.8c0.7,0.2,9.5,2,14-6.9
		c0.5-1,0.9-2,1.4-3c2.3-4.8,4.6-9.7,7.1-14.6l5.1-10l2.6-5.2l2-3.9c2.5-4.9,5-9.7,7.5-14.4c0.7-1.3,1.4-2.6,2.1-3.9
		c4-8.9-3.2-14.7-3.2-14.7c-2.3,5-4.5,9.9-6.8,14.7C847.5,352.5,845.2,357.4,842.7,362.3"/>
</g>
<g>
	<path class="st1" d="M529,165.1c4.8-11.6,11.5-21.4,20.2-29.4c8.6-8,19-14.1,31-18.3c12-4.2,25.2-6.3,39.5-6.3
		c14.5,0,27.7,2.1,39.8,6.3c12,4.2,22.4,10.3,31,18.3c8.6,8,15.3,17.8,20.1,29.4c4.8,11.6,7.2,24.8,7.2,39.6c0,14.8-2.4,28-7.2,39.7
		c-4.8,11.6-11.5,21.4-20.1,29.4c-8.6,8-19,14-31,17.9c-12,3.9-25.3,5.9-39.8,5.9c-14.3,0-27.5-1.9-39.5-5.9
		c-12-3.9-22.4-9.9-31-17.9c-8.6-8-15.4-17.8-20.2-29.4c-4.8-11.6-7.2-24.8-7.2-39.7C521.8,189.9,524.2,176.7,529,165.1
		 M686.7,167.2c-3.7-10.6-8.8-19.3-15.3-26.2c-6.5-6.9-14.2-12-23-15.3c-8.8-3.3-18.4-5-28.7-5c-10.1,0-19.6,1.7-28.4,5
		c-8.8,3.3-16.5,8.4-23,15.3c-6.5,6.9-11.6,15.6-15.3,26.2c-3.7,10.6-5.5,23.1-5.5,37.6c0,14.5,1.8,27,5.5,37.5
		c3.7,10.6,8.8,19.3,15.3,26.2c6.5,6.9,14.2,12,23,15.3c8.8,3.3,18.3,5,28.4,5c10.3,0,19.8-1.7,28.7-5c8.8-3.3,16.5-8.4,23-15.3
		c6.5-6.9,11.6-15.6,15.3-26.2c3.7-10.5,5.5-23,5.5-37.5C692.2,190.3,690.3,177.7,686.7,167.2"/>
	<path class="st1" d="M506.1,231.3c-0.1-8.1-0.2-16.4-0.3-24.7c-0.1-8.4-0.1-16.5-0.1-24.3c0-11.5,0.2-22.8,0.7-33.9
		c-0.1-30.3-24.2-33.9-24.2-33.9c0.5,11.5,1,22.8,1.4,33.9c0.4,11.1,0.7,22.4,0.7,33.9v72c0,10.3-0.3,19.6-0.9,28
		c-0.6,8.4-2.1,15.6-4.3,21.7c-2.3,6.1-5.6,10.9-10,14.3c0,0-6.5,6.3-19.2,12.4c9.6,0.4,18.6-1.4,25.1-4.3
		c6.5-2.9,12.2-6.9,16.9-11.9c4.7-5.1,8.3-10.9,10.9-17.4c2.5-6.6,3.8-13.8,3.8-21.6c0-6.3-0.1-13.2-0.1-20.7
		C506.3,247.2,506.2,239.4,506.1,231.3"/>
	<path class="st1" d="M792.7,192.2c9.4,0,34-0.1,42.8-0.3c8.8-0.1,17.9-0.3,27.3-0.5v-9.2c0-11.5-0.2-22.8-0.6-33.9
		c-0.1-2.6-0.2-5.2-0.3-7.9c0.1-20.8,22.7-25.6,24.5-26c-0.5,11.5-1,22.8-1.4,33.9c-0.4,11.1-0.6,22.4-0.6,33.9v45
		c0,11.5,0.2,22.9,0.6,34c0.4,11.2,0.9,22.1,1.4,33c-1.8-0.3-24.3-5.1-24.5-25.8c0.1-2.4,0.2-4.7,0.3-7.1c0.4-11.2,0.6-22.5,0.6-34
		v-23.6c-9.4-0.2-18.5-0.3-27.3-0.4c-8.8-0.1-17.9-0.1-27.3-0.1c-9.4,0-35,0.3-43.8,0.4C764.3,203.5,770.2,192.2,792.7,192.2"/>
	<path class="st1" d="M732,182.2v45c0,11.5-0.2,22.8-0.7,34c-0.4,11.2-0.9,22.1-1.4,33c1.9-0.4,24.4-5.2,24.5-26
		c-0.1-2.3-0.2-4.6-0.3-7c-0.5-11.2-0.6-22.5-0.6-34v-23.6v-12.3v-9.2c0-11.5,0.2-22.8,0.6-33.9c0.1-3.1,0.3-6.2,0.4-9.4
		c-1.2-20.4-24.6-24.5-24.6-24.5c0.5,11.5,1,22.8,1.4,33.9C731.8,159.4,732,170.7,732,182.2"/>
	<path class="st1" d="M928.4,153.7c22.7,24.1,45.3,48.3,68,72.6c18.4,19.7,35.8,39,52.5,58l0,0c0,0,0.1,0.1,0.1,0.2
		c2.4,2.7,4.7,5.3,7,8c5.6,5.3,12.7,9,13.8-4.3c0-4,0-8.6-0.1-13.9c-0.1-5.7-0.2-11.8-0.3-18.3c-0.1-6.5-0.2-13-0.3-19.5
		c-0.1-6.5-0.1-12.6-0.1-18.6v-15.7c0-5.1,0.2-11.8,0.5-20.1c0.3-8.4,0.7-16.9,1.2-25.6c0.4-8.7,0.9-16.9,1.3-24.6
		c0.4-7.3,0.8-12.8,1.1-16.6c-3.2,1-5.6,1.7-5.6,1.7s-16.2,5.7-16,26.7c0.2,6.5,0.4,13.2,0.5,20c0.3,17.3,0.4,35.2,0.4,53.5v35.6
		c-8-8-17.4-17.7-28.1-29.2c-10.7-11.4-22.1-23.6-34-36.4c-11-11.8-49.2-49.9-64.6-66.1c-14.7-13.4-15,2.4-15,2.4h0
		c0.1,4.3,0.2,9.1,0.2,14.6c0.1,12,0.1,26.4,0.1,43.2c0,5.8-0.1,12.3-0.2,19.6c-0.2,7.3-0.4,14.8-0.7,22.5c-0.3,7.7-0.6,15.4-1,23
		c-0.4,6.7-0.7,12.9-1,18.7c0.3,7.3,3.2,22.3,22,29.2c-0.2-1.4-0.3-4.1-0.5-8c-0.2-3.9-0.3-8.5-0.5-13.7c-0.2-5.2-0.3-10.9-0.5-17
		c-0.2-6.1-0.3-12.1-0.4-18c-0.1-5.9-0.2-11.6-0.3-17c-0.1-5.4-0.1-10-0.1-13.6c0-14.1,0.1-25.3,0.3-33.5
		C928,165.1,928.2,158.6,928.4,153.7"/>
	<path class="st1" d="M1565.8,164.9c4.8-11.6,11.5-21.4,20.2-29.4c8.6-8,19-14.1,31-18.3c12-4.2,25.2-6.3,39.5-6.3
		c14.5,0,27.8,2.1,39.8,6.3c12,4.2,22.4,10.3,31,18.3c8.6,8,15.3,17.8,20.1,29.4c4.8,11.6,7.2,24.8,7.2,39.6c0,14.8-2.4,28-7.2,39.7
		c-4.8,11.6-11.5,21.4-20.1,29.4c-8.6,8-19,14-31,17.9c-12,3.9-25.3,5.9-39.8,5.9c-14.3,0-27.5-2-39.5-5.9c-12-3.9-22.4-9.9-31-17.9
		c-8.6-8-15.4-17.8-20.2-29.4c-4.8-11.6-7.2-24.8-7.2-39.7C1558.6,189.7,1561,176.5,1565.8,164.9 M1723.5,167
		c-3.7-10.6-8.8-19.3-15.3-26.2c-6.5-6.9-14.2-12-23-15.3c-8.8-3.3-18.4-5-28.7-5c-10.1,0-19.6,1.7-28.4,5
		c-8.8,3.3-16.5,8.4-23,15.3c-6.5,6.9-11.6,15.6-15.3,26.2c-3.7,10.6-5.5,23.1-5.5,37.6c0,14.5,1.8,27,5.5,37.5
		c3.7,10.6,8.8,19.3,15.3,26.2c6.5,6.9,14.2,12,23,15.3c8.8,3.3,18.3,5,28.4,5c10.3,0,19.8-1.7,28.7-5c8.8-3.3,16.5-8.4,23-15.3
		c6.5-6.9,11.7-15.6,15.3-26.2c3.7-10.5,5.5-23,5.5-37.5C1729,190.1,1727.2,177.5,1723.5,167"/>
	<path class="st1" d="M1403.5,209.5c-9-6.8-21.2-10.5-36.8-11.3v-0.5c13.1-3,23.7-8.1,31.8-15.4c8.1-7.3,12.2-17.4,12.2-30.4
		c0-7.3-1.5-13.4-4.4-18.3c-3-4.9-7-8.7-12-11.6c-5-2.9-10.9-4.9-17.5-6c-6.6-1.1-13.7-1.7-21.2-1.7c-4.5,0-9.2,0.2-13.9,0.6
		c-4.7,0.4-9.3,0.7-13.9,0.7c-4,0-8.1-0.1-12.3-0.3c0,0-0.1,0.1-0.1,0.1s-14.2,0-14.2,24.9h0c0.1,2.5,0.2,5.1,0.3,7.6
		c0.4,11.2,0.7,22.5,0.7,34v45c0,11.5-0.2,22.8-0.7,33.9c-0.4,11.1-0.9,22.2-1.4,33.4c4.2-0.4,8.4-0.5,12.7-0.5h12.7
		c4.2,0,8.4,0.1,12.7,0.3c4.3,0.2,8.5,0.3,12.7,0.3c7.7,0,15.4-0.8,23.2-2.5c7.8-1.7,14.9-4.5,21.3-8.6c6.4-4.1,11.7-9.5,15.7-16.1
		c4-6.6,6-14.8,6-24.6C1417,227.2,1412.5,216.3,1403.5,209.5 M1389.5,259.8c-2.3,5.5-5.3,10.1-9.2,13.9c-3.8,3.8-8.3,6.6-13.5,8.5
		c-5.1,1.9-10.5,2.9-16.1,2.9c-4.7,0-9.3-0.2-13.9-0.4c-4.5-0.3-8.5-0.6-11.8-0.9c-0.3-8.9-0.7-17.7-1-26.4
		c-0.3-8.7-0.5-17.5-0.5-26.4v-26.7v-9.7v-19.6c0-8.4,0.2-16.7,0.5-24.9c0.3-8.2,0.7-16.5,1-24.9c2.4-0.3,5.2-0.6,8.4-0.9
		c3.1-0.3,7-0.4,11.5-0.4c5,0,10.1,0.4,15.2,1.2c5,0.8,9.6,2.4,13.6,4.7c4,2.4,7.3,5.7,10,10c2.6,4.3,3.9,10,3.9,17.1
		c0,7.3-1.4,13.4-4.3,18.2c-2.9,4.8-6.7,8.6-11.4,11.5c-4.7,2.9-10.1,5-16.1,6.1c0,0-22.6,3.6-27.1,11.8l6.6-0.2
		c8.7,0,16.6,0.5,23.7,1.6c7.1,1,13.1,2.9,18.2,5.6c5.1,2.7,8.9,6.5,11.6,11.3c2.7,4.8,4.1,10.9,4.1,18.4
		C1392.9,248.1,1391.8,254.4,1389.5,259.8"/>
	<path class="st1" d="M1538.3,209.5c-9-6.8-21.2-10.5-36.8-11.3v-0.5c13.1-3,23.7-8.1,31.8-15.4c8.1-7.3,12.2-17.4,12.2-30.4
		c0-7.3-1.5-13.4-4.5-18.3c-3-4.9-7-8.7-12-11.6c-5-2.9-10.9-4.9-17.5-6c-6.6-1.1-13.7-1.7-21.2-1.7c-4.5,0-9.2,0.2-13.9,0.6
		c-4.7,0.4-9.3,0.7-13.9,0.7c-4,0-8.1-0.1-12.3-0.3c0,0-0.1,0.1-0.1,0.1s-14.2,0-14.2,24.9h0c0.1,2.5,0.2,5.1,0.3,7.6
		c0.4,11.2,0.6,22.5,0.6,34v45c0,11.5-0.2,22.8-0.6,33.9c-0.4,11.1-0.9,22.2-1.5,33.4c4.2-0.4,8.4-0.5,12.7-0.5h12.7
		c4.2,0,8.4,0.1,12.7,0.3c4.3,0.2,8.5,0.3,12.7,0.3c7.7,0,15.4-0.8,23.2-2.5c7.8-1.7,14.9-4.5,21.3-8.6c6.5-4.1,11.7-9.5,15.7-16.1
		c4-6.6,6-14.8,6-24.6C1551.8,227.2,1547.3,216.3,1538.3,209.5 M1524.3,259.8c-2.3,5.5-5.3,10.1-9.2,13.9c-3.8,3.8-8.3,6.6-13.5,8.5
		c-5.1,1.9-10.5,2.9-16.1,2.9c-4.7,0-9.4-0.2-13.9-0.4c-4.5-0.3-8.5-0.6-11.8-0.9c-0.3-8.9-0.7-17.7-1.1-26.4
		c-0.3-8.7-0.5-17.5-0.5-26.4v-26.7v-9.7v-19.6c0-8.4,0.2-16.7,0.5-24.9c0.4-8.2,0.7-16.5,1.1-24.9c2.4-0.3,5.2-0.6,8.4-0.9
		c3.1-0.3,7-0.4,11.5-0.4c5,0,10.1,0.4,15.2,1.2c5,0.8,9.6,2.4,13.6,4.7c4,2.4,7.3,5.7,9.9,10c2.6,4.3,3.9,10,3.9,17.1
		c0,7.3-1.4,13.4-4.3,18.2c-2.9,4.8-6.7,8.6-11.4,11.5c-4.7,2.9-10.1,5-16.1,6.1c0,0-22.6,3.6-27.1,11.8l6.6-0.2
		c8.7,0,16.6,0.5,23.7,1.6c7.1,1,13.1,2.9,18.2,5.6c5.1,2.7,8.9,6.5,11.6,11.3c2.7,4.8,4.1,10.9,4.1,18.4
		C1527.7,248.1,1526.6,254.4,1524.3,259.8"/>
	<path class="st1" d="M1275.4,275.7c-3.6-8-7.6-17.1-12-27.3c-4.5-10.2-9.2-21.2-14.2-33.1c-5.1-11.9-10.1-23.8-15.2-35.9
		c-5.1-12-10-23.9-14.9-35.7c-4.9-11.8-9.4-22.7-13.6-32.8c-7.8-0.7-15.8,12.9-20.2,21.8c-10.4,23.7-20.7,47.2-31,70.3
		c-9.4,21.1-19,42.3-28.7,63.5c0,0-7.3,15.2,12.4,27.5c2.3-8,5.7-18.2,10.2-30.5c4.5-12.3,9.6-25.3,15.2-38.8l5-12.1l28.5-66.5
		l29,66.5c-4.9,0.2-9.8,0.3-14.7,0.4c-4.9,0.1-9.8,0.1-14.6,0.1c-19.4,0.2-24.3,11.2-24.3,11.2c5.2-0.1,17.6-0.3,23-0.3
		c5.8,0,11.5,0,17.3,0.1c5.7,0.1,11.4,0.2,17,0.4c2.3,5.7,4.7,11.8,7.3,18.2c2.6,6.4,5.2,12.7,7.7,18.9c1.4,3.5,2.7,6.8,4,10.1
		c3.1,5.8,13.6,21.8,34.8,22.2c0.3,0,0.5-0.1,0.8-0.1C1281.9,289.8,1279,283.7,1275.4,275.7"/>
	<path class="st1" d="M2031,114.7c-11.5,0.3-29.3,0.2-40.3,0.5c-11,0.3-18.6,0.4-30.1,0.4c-11.5,0-32.3-0.1-43.3-0.4
		c-29-0.5-33.8,15.6-33.8,15.6c3.7-0.5,7.8-1,12.4-1.3c4.6-0.3,9.4-0.7,14.4-0.9c5-0.3,13.9-0.4,18.8-0.5c5-0.1,9.8-0.1,14.3-0.1
		c0.5,18,0.8,36,0.8,54.2v45c0,11.5-0.2,22.9-0.7,34c-0.4,11.2-0.9,22.1-1.4,33c0,0,25-4.5,26-40.8c-0.2-8.6-0.4-17.4-0.4-26.2v-45
		c0-18.1,0.2-36.2,0.8-54.2c4.5,0,9.3,0.1,14.2,0.1c5,0.1,10,0.3,14.9,0.5c1.3,0.1,2.5,0.2,3.9,0.2
		C2024.3,129,2031,114.7,2031,114.7"/>
	<path class="st1" d="M1885.8,114.7c-11.5,0.3-27.1,0.2-38.1,0.5c-11,0.3-18.6,0.4-30.1,0.4s-34-0.1-45-0.4
		c-29-0.5-33.7,15.6-33.7,15.6c3.7-0.5,7.8-1,12.4-1.3c4.6-0.3,9.4-0.7,14.4-0.9c5-0.3,15.6-0.4,20.6-0.5c5-0.1,9.7-0.1,14.3-0.1
		c0.5,18,0.8,36,0.8,54.2v45c0,11.5-0.2,22.9-0.7,34c-0.4,11.2-0.9,22.1-1.4,33c0,0,25-4.5,26-40.8c-0.3-8.6-0.4-17.4-0.4-26.2v-45
		c0-18.1,0.2-36.2,0.8-54.2c4.5,0,9.3,0.1,14.3,0.1c5,0.1,7.8,0.3,12.7,0.5c1.3,0.1,2.6,0.2,3.9,0.2
		C1879.1,129,1885.8,114.7,1885.8,114.7"/>
	<path class="st1" d="M348.6,124.3c0,0,66.7,69.7,23,183.2C371.6,307.5,338.9,209.7,348.6,124.3"/>
	<path class="st1" d="M343.9,331.1L343.9,331.1c-10.3-35.5-30.9-119.2-27.2-210.7c0-0.8,0-1.7,0-2.7c0.6-23.4-14-36.2-18-39.2
		l-0.2-0.1c-0.5-0.4-0.8-0.6-0.8-0.6l0,0l-14.4-11.2c0.7,35.4-11.7,203.6,40.8,309l15.6-16.3C349.1,346.4,343.9,331.1,343.9,331.1"
		/>
</g>
<g>
	<path class="st1" d="M273.4,405.6c24.6-9.6,14.2-28.6,13.7-31.2c-34.3-86.8-34.6-174.7-34.6-174.7l-1-140.5
		c-1.9-16.4-15-28.9-17.7-31.4l-15.4-12.9l-0.6,181.6c1.5,137.9,45.4,213.5,45.4,213.5L273.4,405.6L273.4,405.6z"/>
	<path class="st1" d="M51.1,124.3c0,0-66.7,69.7-23,183.2C28.1,307.5,60.8,209.7,51.1,124.3"/>
</g>
<g>
	<path class="st1" d="M55.7,331.1L55.7,331.1c10.3-35.5,30.9-119.2,27.1-210.7c0-0.8,0-1.7,0-2.7c-0.6-23.4,14-36.2,18-39.2l0.2-0.1
		c0.5-0.4,0.8-0.6,0.8-0.6l0,0l14.4-11.2c-0.7,35.4,11.7,203.6-40.8,309l-15.6-16.3C50.6,346.4,55.7,331.1,55.7,331.1"/>
	<path class="st1" d="M126.3,405.6c-24.6-9.6-14.2-28.6-13.7-31.2c34.3-86.8,34.6-174.7,34.6-174.7l1-140.5
		c1.9-16.4,15-28.9,17.7-31.4l15.4-12.9l0.6,181.6c-1.5,137.9-45.4,213.5-45.4,213.5L126.3,405.6L126.3,405.6z"/>
	<path class="st1" d="M941.2,355.1c2-4.9,4.9-9.1,8.5-12.4c3.7-3.4,8-6,13.1-7.7c5.1-1.8,10.6-2.7,16.7-2.7c6.1,0,11.7,0.9,16.8,2.7
		c5.1,1.8,9.5,4.3,13.1,7.7c3.7,3.4,6.5,7.5,8.5,12.4c2,4.9,3,10.5,3,16.7c0,6.3-1,11.8-3,16.7c-2,4.9-4.9,9.1-8.5,12.5
		c-3.6,3.4-8,5.9-13.1,7.6c-5.1,1.7-10.7,2.5-16.8,2.5c-6.1,0-11.6-0.8-16.7-2.5c-5.1-1.6-9.4-4.2-13.1-7.6
		c-3.7-3.4-6.5-7.6-8.5-12.5c-2-4.9-3-10.5-3-16.7C938.2,365.5,939.2,359.9,941.2,355.1 M1007.8,355.9c-1.5-4.5-3.7-8.1-6.5-11.1
		c-2.8-2.9-6-5.1-9.7-6.5c-3.7-1.4-7.8-2.1-12.1-2.1c-4.3,0-8.3,0.7-12,2.1c-3.7,1.4-7,3.6-9.7,6.5c-2.7,2.9-4.9,6.6-6.5,11.1
		c-1.6,4.5-2.3,9.8-2.3,15.9c0,6.1,0.8,11.4,2.3,15.9c1.5,4.5,3.7,8.1,6.5,11.1c2.8,2.9,6,5.1,9.7,6.5c3.7,1.4,7.7,2.1,12,2.1
		c4.3,0,8.4-0.7,12.1-2.1c3.7-1.4,7-3.6,9.7-6.5c2.8-2.9,4.9-6.6,6.5-11.1c1.6-4.4,2.3-9.7,2.3-15.9
		C1010.1,365.7,1009.4,360.4,1007.8,355.9"/>
	<path class="st1" d="M573.8,404.9L573.8,404.9c-1.3,0.5-2.6,1-4.1,1.5c-2.3,0.7-4.7,1-7.4,1c-4.3,0-8.4-0.7-12.1-2.1
		c-3.7-1.4-7-3.6-9.7-6.5c-2.8-2.9-4.9-6.6-6.5-11.1c-1.5-4.5-2.3-9.7-2.3-15.9c0-6.1,0.8-11.4,2.3-15.8c1.5-4.5,3.7-8.1,6.5-11.1
		c2.8-2.9,6-5.1,9.7-6.5c3.7-1.4,7.8-2.1,12.1-2.1c2.7,0,5.1,0.4,7.3,1c0.4,0.1,0.8,0.3,1.1,0.4l0,0c0,0,11.5,4.8,15.6-0.4
		c-3.1-1.4-6.7-2.6-10.7-3.6c-4-1-8.5-1.5-13.3-1.5c-6.1,0-11.7,0.9-16.8,2.7c-5.1,1.8-9.4,4.4-13.1,7.7c-3.7,3.4-6.5,7.5-8.5,12.4
		c-2,4.9-3,10.5-3,16.7c0,6.3,1,11.9,3,16.8c2,4.9,4.8,9.1,8.4,12.4c3.6,3.4,7.8,5.9,12.8,7.6c4.9,1.7,10.3,2.5,16.1,2.5
		c2.7,0,5.3-0.2,7.9-0.7c2.5-0.5,4.8-1,6.8-1.5c2-0.6,3.8-1.2,5.2-1.9c1.4-0.7,2.5-1.3,3.1-1.9C580.3,402,573.8,404.9,573.8,404.9"
		/>
	<path class="st1" d="M928.1,404.9L928.1,404.9c-1.3,0.5-2.6,1-4.1,1.5c-2.2,0.7-4.7,1-7.4,1c-4.3,0-8.4-0.7-12.1-2.1
		c-3.7-1.4-7-3.6-9.7-6.5c-2.8-2.9-4.9-6.6-6.5-11.1c-1.5-4.5-2.3-9.7-2.3-15.9c0-6.1,0.8-11.4,2.3-15.8c1.6-4.5,3.7-8.1,6.5-11.1
		c2.8-2.9,6-5.1,9.7-6.5c3.7-1.4,7.8-2.1,12.1-2.1c2.7,0,5.1,0.4,7.3,1c0.4,0.1,0.7,0.3,1.1,0.4l0,0c0,0,11.5,4.8,15.5-0.4
		c-3.1-1.4-6.6-2.6-10.7-3.6c-4-1-8.5-1.5-13.3-1.5c-6.1,0-11.7,0.9-16.8,2.7c-5.1,1.8-9.5,4.4-13.1,7.7c-3.7,3.4-6.5,7.5-8.5,12.4
		c-2,4.9-3,10.5-3,16.7c0,6.3,1,11.9,3,16.8c2,4.9,4.8,9.1,8.4,12.4c3.6,3.4,7.8,5.9,12.8,7.6c4.9,1.7,10.3,2.5,16.1,2.5
		c2.7,0,5.3-0.2,7.8-0.7c2.5-0.5,4.8-1,6.8-1.5c2-0.6,3.8-1.2,5.2-1.9c1.4-0.7,2.5-1.3,3.1-1.9C934.6,402,928.1,404.9,928.1,404.9"
		/>
	<path class="st1" d="M621.4,339.5c9.9-0.3,11-5,11.1-5.7c0,0,0-0.1,0-0.1c-3.3,0.1-6.6,0.3-9.8,0.4c-3.2,0.1-6.5,0.1-9.8,0.1
		c-2.6,0-5.3-0.1-7.9-0.1c-0.6,0-1.2,0-2,0c-10.4-0.8-9.5,7.1-9.5,7.1l0,0c0.1,2.2,0.2,4.5,0.3,6.7c0.2,4.7,0.3,9.5,0.3,14.4v19
		c0,4.8-0.1,9.6-0.3,14.3c-0.2,4.7-0.4,9.4-0.6,14.1c3.4-0.2,6.7-0.2,10.1-0.2h10.1h10c3.3,0,6.6,0.1,9.9,0.2c0,0-2-5.3-10.5-5.1
		c-0.3,0-0.5,0-0.7,0c-0.9,0.1-1.8,0.1-2.7,0.1c-2.7,0.1-5.4,0.2-8.2,0.2h-7.8c-0.1-1.4-0.1-3.5-0.2-6.2c0-2.7-0.1-6.2-0.1-10.4
		v-6.6v-4.3c0-1.2,0-2.2,0.1-2.9c0-0.8,0.1-1.5,0.1-2.2c1.3,0,3.1,0,5.4,0c2.3,0.1,4.7,0.1,7.2,0.1c2.5,0,5.1,0.1,7.6,0.3
		c2.5,0.1,4.8,0.3,6.7,0.5c0,0-1.8-6-11.1-6c-2.1,0.1-4.5,0.2-7.1,0.3c-2.6,0.1-5.5,0.1-8.7,0.1c0-1.4,0-3.5-0.1-6.2
		c0-2.7-0.1-5.5-0.1-8.4c0-2.7,0.1-5.2,0.2-7.3c0.1-2.1,0.2-4.4,0.3-6.7c3.6,0,6.7,0.1,9.3,0.2C612.8,339.1,619.3,339.6,621.4,339.5
		"/>
	<path class="st1" d="M745.9,339.5c9.9-0.3,11-5,11.1-5.7c0,0,0-0.1,0-0.1c-3.3,0.1-6.6,0.3-9.8,0.4c-3.2,0.1-6.5,0.1-9.8,0.1
		c-2.6,0-5.3-0.1-7.9-0.1c-0.6,0-1.2,0-2,0c-10.4-0.8-9.5,7.1-9.5,7.1l0,0c0.1,2.2,0.2,4.5,0.3,6.7c0.2,4.7,0.3,9.5,0.3,14.4v19
		c0,4.8-0.1,9.6-0.3,14.3c-0.2,4.7-0.4,9.4-0.6,14.1c3.4-0.2,6.7-0.2,10.1-0.2h10h10c3.3,0,6.6,0.1,9.9,0.2c0,0-2-5.3-10.5-5.1
		c-0.3,0-0.5,0-0.7,0c-0.9,0.1-1.8,0.1-2.7,0.1c-2.7,0.1-5.4,0.2-8.2,0.2h-7.7c-0.1-1.4-0.1-3.5-0.2-6.2c0-2.7-0.1-6.2-0.1-10.4
		v-6.6v-4.3c0-1.2,0-2.2,0.1-2.9c0-0.8,0.1-1.5,0.1-2.2c1.3,0,3.1,0,5.4,0c2.2,0.1,4.6,0.1,7.2,0.1c2.5,0,5.1,0.1,7.6,0.3
		c2.5,0.1,4.8,0.3,6.7,0.5c0,0-1.8-6-11-6c-2.1,0.1-4.5,0.2-7.1,0.3c-2.6,0.1-5.5,0.1-8.7,0.1c0-1.4,0-3.5-0.1-6.2
		c0-2.7-0.1-5.5-0.1-8.4c0-2.7,0.1-5.2,0.2-7.3c0.1-2.1,0.2-4.4,0.3-6.7c3.6,0,6.7,0.1,9.3,0.2C737.3,339.1,743.7,339.6,745.9,339.5
		"/>
	<path class="st1" d="M699.3,386.8c0,0,0,0.1,0,0.1c0,1,0.1,2,0.1,3c0,2.3,0,4.5-0.1,6.7c0,2.2-0.1,4.4-0.2,6.6
		c-0.9,0.6-2.1,1.1-3.5,1.6c-1.4,0.4-2.8,0.8-4.4,1.1c-1.6,0.3-3.2,0.5-4.9,0.7c-1.7,0.1-3.3,0.2-4.9,0.2c-5.1,0-9.8-0.8-13.9-2.4
		c-4.1-1.6-7.6-3.9-10.4-6.9c-2.8-3-5-6.7-6.5-11c-1.5-4.3-2.2-9.2-2.2-14.6c0-6.1,0.8-11.4,2.5-15.8c1.7-4.5,3.9-8.1,6.9-11.1
		c2.9-2.9,6.3-5.1,10.3-6.5c3.9-1.4,8.2-2.1,12.8-2.1c2.8,0,5.4,0.3,7.9,0.9c2.5,0.6,4.7,1.4,6.7,2.4c9.8,5,13.5-1.1,13.5-1.1
		c-1.3-0.7-2.8-1.3-4.5-2.1c-1.7-0.7-3.7-1.4-5.9-2.1c-2.3-0.7-4.8-1.2-7.7-1.6c-2.9-0.4-6.2-0.6-10-0.6c-6.5,0-12.4,0.9-17.8,2.7
		c-5.3,1.8-9.9,4.4-13.6,7.7c-3.8,3.4-6.7,7.5-8.7,12.4c-2.1,4.9-3.1,10.5-3.1,16.7c0,6.5,1,12.2,3,17.2c2,4.9,4.8,9.1,8.5,12.4
		c3.7,3.3,8.2,5.8,13.4,7.4c5.3,1.6,11.2,2.4,17.8,2.4c2.1,0,4.5-0.2,7.1-0.5c2.6-0.3,5.2-0.7,7.9-1.1c2.6-0.4,5.1-0.9,7.4-1.5
		c2.3-0.6,4.3-1.2,5.8-1.8c0-1.5,0-3-0.1-4.5c0-1.5-0.1-3-0.1-4.5c0-6,0-10.8,0.1-14.4c0.1-3.4,0.2-5.9,0.3-7.6l0,0
		C708.8,375.2,699.5,375.4,699.3,386.8"/>
	<path class="st1" d="M1156.3,339.5c9.9-0.3,11-5,11.1-5.7c0,0,0-0.1,0-0.1c-3.3,0.1-6.6,0.3-9.8,0.4c-3.2,0.1-6.5,0.1-9.8,0.1
		c-2.6,0-5.2-0.1-7.9-0.1c-0.6,0-1.2,0-2,0c-10.4-0.8-9.5,7.1-9.5,7.1l0,0c0.1,2.2,0.2,4.5,0.3,6.7c0.2,4.7,0.3,9.5,0.3,14.4v19
		c0,4.8-0.1,9.6-0.3,14.3c-0.2,4.7-0.4,9.4-0.6,14.1c3.4-0.2,6.8-0.2,10.1-0.2h10.1h10c3.3,0,6.6,0.1,9.9,0.2c0,0-2-5.3-10.5-5.1
		c-0.3,0-0.5,0-0.7,0c-0.9,0.1-1.8,0.1-2.7,0.1c-2.7,0.1-5.4,0.2-8.2,0.2h-7.8c-0.1-1.4-0.1-3.5-0.2-6.2c0-2.7-0.1-6.2-0.1-10.4
		v-6.6v-4.3c0-1.2,0-2.2,0.1-2.9c0-0.8,0.1-1.5,0.1-2.2c1.3,0,3.1,0,5.4,0c2.3,0.1,4.7,0.1,7.2,0.1c2.6,0,5.1,0.1,7.6,0.3
		c2.5,0.1,4.8,0.3,6.7,0.5c0,0-1.8-6-11-6c-2.1,0.1-4.5,0.2-7.1,0.3c-2.6,0.1-5.5,0.1-8.7,0.1c0-1.4,0-3.5-0.1-6.2
		c0-2.7-0.1-5.5-0.1-8.4c0-2.7,0.1-5.2,0.2-7.3c0.1-2.1,0.2-4.4,0.3-6.7c3.6,0,6.7,0.1,9.3,0.2
		C1147.7,339.1,1154.1,339.6,1156.3,339.5"/>
	<path class="st1" d="M1282,339.5c9.9-0.3,11-5,11.1-5.7c0,0,0-0.1,0-0.1c-3.3,0.1-6.6,0.3-9.8,0.4c-3.2,0.1-6.5,0.1-9.8,0.1
		c-2.6,0-5.3-0.1-7.9-0.1c-0.6,0-1.2,0-2,0c-10.4-0.8-9.5,7.1-9.5,7.1l0,0c0.1,2.2,0.2,4.5,0.3,6.7c0.2,4.7,0.3,9.5,0.3,14.4v19
		c0,4.8-0.1,9.6-0.3,14.3c-0.2,4.7-0.4,9.4-0.6,14.1c3.4-0.2,6.7-0.2,10.1-0.2h10h10c3.3,0,6.6,0.1,9.9,0.2c0,0-2-5.3-10.5-5.1
		c-0.3,0-0.5,0-0.7,0c-0.9,0.1-1.8,0.1-2.7,0.1c-2.7,0.1-5.4,0.2-8.2,0.2h-7.7c-0.1-1.4-0.1-3.5-0.2-6.2c-0.1-2.7-0.1-6.2-0.1-10.4
		v-6.6v-4.3c0-1.2,0-2.2,0.1-2.9c0-0.8,0.1-1.5,0.1-2.2c1.3,0,3.1,0,5.4,0c2.3,0.1,4.6,0.1,7.2,0.1c2.5,0,5.1,0.1,7.6,0.3
		c2.5,0.1,4.8,0.3,6.7,0.5c0,0-1.8-6-11-6c-2.1,0.1-4.5,0.2-7.1,0.3c-2.6,0.1-5.5,0.1-8.7,0.1c0-1.4,0-3.5-0.1-6.2
		c-0.1-2.7-0.1-5.5-0.1-8.4c0-2.7,0.1-5.2,0.2-7.3c0.1-2.1,0.2-4.4,0.3-6.7c3.6,0,6.7,0.1,9.3,0.2
		C1273.4,339.1,1279.8,339.6,1282,339.5"/>
	<path class="st1" d="M1234.1,386.8c0,0,0,0.1,0,0.1c0,1,0.1,2,0.1,3c0,2.3,0,4.5-0.1,6.7c0,2.2-0.1,4.4-0.2,6.6
		c-1,0.6-2.1,1.1-3.5,1.6c-1.4,0.4-2.8,0.8-4.4,1.1c-1.6,0.3-3.2,0.5-4.9,0.7c-1.7,0.1-3.3,0.2-4.9,0.2c-5.1,0-9.8-0.8-13.8-2.4
		c-4.1-1.6-7.6-3.9-10.4-6.9c-2.8-3-5-6.7-6.5-11c-1.5-4.3-2.2-9.2-2.2-14.6c0-6.1,0.8-11.4,2.5-15.8c1.7-4.5,3.9-8.1,6.9-11.1
		c2.9-2.9,6.3-5.1,10.3-6.5c3.9-1.4,8.2-2.1,12.8-2.1c2.8,0,5.4,0.3,7.9,0.9c2.5,0.6,4.7,1.4,6.7,2.4c9.8,5,13.5-1.1,13.5-1.1
		c-1.3-0.7-2.8-1.3-4.5-2.1c-1.7-0.7-3.7-1.4-5.9-2.1c-2.2-0.7-4.8-1.2-7.7-1.6c-2.9-0.4-6.2-0.6-10-0.6c-6.5,0-12.4,0.9-17.8,2.7
		c-5.3,1.8-9.9,4.4-13.6,7.7c-3.8,3.4-6.7,7.5-8.7,12.4c-2.1,4.9-3.1,10.5-3.1,16.7c0,6.5,1,12.2,3,17.2c2,4.9,4.8,9.1,8.5,12.4
		c3.7,3.3,8.2,5.8,13.4,7.4c5.3,1.6,11.2,2.4,17.8,2.4c2.1,0,4.5-0.2,7.1-0.5c2.6-0.3,5.2-0.7,7.8-1.1c2.6-0.4,5.1-0.9,7.4-1.5
		c2.3-0.6,4.3-1.2,5.8-1.8c0-1.5,0-3-0.1-4.5c0-1.5,0-3,0-4.5c0-6,0-10.8,0.1-14.4c0.1-3.4,0.2-5.9,0.3-7.6l0,0
		C1243.7,375.2,1234.4,375.4,1234.1,386.8"/>
	<path class="st1" d="M814.6,344.6c-0.9-2.1-2-3.8-3.5-5.3c-1.4-1.4-3-2.5-4.8-3.2c-1.8-0.8-3.6-1.3-5.4-1.7
		c-1.8-0.4-3.5-0.6-5.1-0.6c-1.6-0.1-3-0.1-4.1-0.1c-0.8,0-1.8,0-3,0.1c-1.2,0.1-2.4,0.1-3.7,0.1c-1.3,0-2.6,0.1-3.8,0.2
		c-1.2,0.1-2.3,0.1-3.2,0.1c-1.8,0-3.6-0.1-5.4-0.1c-1.8-0.1-3.6-0.2-5.4-0.4c0.2,4.9,0.4,9.6,0.6,14.3c0.2,4.7,0.3,9.5,0.3,14.3v19
		c0,4.9-0.1,9.6-0.3,14.4c-0.2,4.7-0.4,9.4-0.6,13.9c0,0,10.2-3.7,10.2-15.5c0-0.1,0-0.1,0-0.1c-0.1-4.2-0.2-8.4-0.2-12.6v-6.1v-4.6
		v-32.8h10c2.9,0,5.4,0.2,7.7,0.6c2.3,0.4,4.2,1.2,5.8,2.3c1.6,1.1,2.8,2.7,3.7,4.7c0.9,2,1.3,4.6,1.3,7.7c0,3.7-0.6,6.8-1.9,9.2
		c-1.3,2.4-3,4.3-5,5.6c-2,1.4-4.2,2.6-6.7,2.8c-8.3,0.9-11,4.5-11,4.5l5,0.3c2.7,0,5.7-0.3,9.1-0.9c3.4-0.6,6.7-1.7,9.7-3.4
		c3.1-1.7,5.6-4.1,7.7-7.1c2.1-3,3.2-7,3.2-11.8C816,349.3,815.5,346.7,814.6,344.6"/>
	<path class="st1" d="M1056.4,404.5h-0.2c-0.5,0-1,0-1.6,0.1c-4.8,0.1-9.8,0.2-15,0.2c-0.1-5.4-0.1-11.5-0.2-18.3
		c-0.1-6.8-0.1-14.9-0.1-24.2c0-4.8,0.1-9.5,0.3-14c-0.1-0.6-0.1-1.3-0.1-2.1c-0.2-10.2-10.1-12.4-10.1-12.4
		c0.2,4.9,0.4,9.6,0.6,14.3c0.2,4.7,0.3,9.4,0.3,14.3v19c0,4.9-0.1,9.7-0.3,14.4c-0.2,4.7-0.4,9.4-0.6,13.9c3.5-0.1,7-0.2,10.2-0.2
		h10.2h10.2c3.4,0,6.8,0.1,10.2,0.2C1070.1,409.6,1068,404.3,1056.4,404.5"/>
</g>
<g>
	<path class="st1" d="M1106.7,404.5h-0.2c-0.5,0-1,0-1.6,0.1c-4.8,0.1-9.8,0.2-15,0.2c-0.1-5.4-0.1-11.5-0.2-18.3
		c-0.1-6.8-0.1-14.9-0.1-24.2c0-4.8,0.1-9.5,0.3-14c-0.1-0.6-0.1-1.3-0.2-2.1c-0.2-10.2-10.1-12.4-10.1-12.4
		c0.2,4.9,0.4,9.6,0.6,14.3c0.2,4.7,0.3,9.4,0.3,14.3v19c0,4.9-0.1,9.7-0.3,14.4c-0.2,4.7-0.4,9.4-0.6,13.9c3.5-0.1,7-0.2,10.2-0.2
		h10.2h10.2c3.4,0,6.8,0.1,10.2,0.2C1120.5,409.6,1118.3,404.3,1106.7,404.5"/>
	<path class="st1" d="M842.7,362.3l-9.7,19.2c-2.5,4.9-5,9.7-7.5,14.4c-2.5,4.7-5.1,9.3-7.6,13.8c0.7,0.2,9.5,2,14-6.9
		c0.5-1,0.9-2,1.4-3c2.3-4.8,4.6-9.7,7.1-14.6l5.1-10l2.6-5.2l2-3.9c2.5-4.9,5-9.7,7.5-14.4c0.7-1.3,1.4-2.6,2.1-3.9
		c4-8.9-3.2-14.7-3.2-14.7c-2.3,5-4.5,9.9-6.8,14.7C847.5,352.5,845.2,357.4,842.7,362.3"/>
</g>
<g>
</g>
<g>
</g>
<g>
</g>
<g>
</g>
<g>
</g>
<g>
</g>
</svg>
