<?xml version="1.0" encoding="UTF-8"?>
<svg id="Layer_1" xmlns="http://www.w3.org/2000/svg" xmlns:xlink="http://www.w3.org/1999/xlink" version="1.1" viewBox="0 0 202 179">
  <!-- Generator: Adobe Illustrator 29.3.1, SVG Export Plug-In . SVG Version: 2.1.0 Build 151)  -->
  <defs>
    <style>
      .st0 {
        fill: #74ac00;
        fill-rule: evenodd;
      }
    </style>
  </defs>
  <g id="iNaturalistAU-Logomark-white">
    <path id="iNaturalist-Logo" class="st0" d="M0,20.7c54.5,5.6,97.4,25.6,128.6,60.1,1.2,1.3,4.6,5.1,7.2,4.2,2.6-.9,5.7-6.8,7.1-8.9,2.2-3.2,8.9-14.7,23.4-19.4,14.6-4.7,33,.5,33.7.8,1.3.4,2.5,1,1.8,2-.7,1-6.9,3.5-11.1,11.5-4.5,8.6-7.1,25.2-7.8,28.9-2.5,15.1-8.6,29.1-17.5,40.9-15.5,20.9-39.5,35.3-67.3,37.8-15.2,1.3-29.9-1-43.2-6.4,16.1-1.6,35.6-9.2,51.2-27.6,19.7-23.1-1.9-11.1-20.4-14.2-13-2.1-23.6-8.8-41.3-31.5,5.7-1.6,16.9-3.5,26-3.9-16.8-3.9-39-14.5-48.8-30.8,7.9-2.7,18.3-1.8,26.6-1.4C16.5,43.7,2.9,33.5,0,20.7ZM75.6,0c1.9.9,30.1,13.2,43.7,31.6,19,25.7,19.7,50.4,14.6,44.7-12.1-13.3-23.3-21.8-37.1-31.3-10.6-7.3-17.6-28.1-21.1-45ZM173.9,64.1c-2.6.2-4.5,2.5-4.3,5.1.2,2.6,2.5,4.5,5.1,4.3,2.6-.2,4.5-2.5,4.3-5.1-.2-2.6-2.5-4.5-5.1-4.3Z"/>
  </g>
</svg>