<?xml version="1.0" encoding="UTF-8"?>
<svg id="Layer_1" xmlns="http://www.w3.org/2000/svg" xmlns:xlink="http://www.w3.org/1999/xlink" version="1.1" viewBox="0 0 916 134">
  <!-- Generator: Adobe Illustrator 29.3.1, SVG Export Plug-In . SVG Version: 2.1.0 Build 151)  -->
  <defs>
    <style>
      .st0 {
        fill: #74ac00;
      }
    </style>
  </defs>
  <g id="iNaturalistCA-Wordmark">
    <g id="iNaturalist.ca-Wordmark">
      <path id="_x2E_ca" class="st0" d="M873.3,48c23.3,0,32.5,10.2,32.5,31.9v29.7s0,1.1,0,1.1c.1,6.5,1,8.9,9.4,8.6l-.6,12.6h-.3c-3.8.9-18,2.6-25.4-6.1-7.1,7-15.5,7.4-24.9,7.4-14.4,0-24.9-8.4-24.9-22.5s8.7-28.3,47.1-28.6v-2.6c0-11.5-2.4-15.6-15.2-15.6s-14.9,1.5-25.7,5.8l-1.3-14.6c8.4-4.7,20.5-7.1,29.4-7.1ZM748.7,107.6c7.5,0,12.4,5.5,12.4,12.9s-5,12.3-12.7,12.3-12.4-5.3-12.4-12.8,4.9-12.4,12.7-12.4ZM808.4,48c6,0,14.3,1,20.7,3.6l-1.3,16.3c-7-2.6-12.7-3.2-17.6-3.2-13.4,0-22.3,7.9-22.3,24.9s9.3,26.3,23.6,26.3,10.4-.8,18.4-4l-.5,16.3c-7.3,3.1-15.8,4.7-21.7,4.7-26.4,0-40.7-16.8-40.7-41.2s17.8-43.6,41.4-43.6ZM858.6,108.6c0,5.7,4.5,9.9,12.6,9.9s11.2-1.9,16-6.2v-16.7c-22.5-.5-28.6,6.3-28.6,13Z"/>
      <g id="iNaturalist">
        <path id="Naturalist" d="M556.3,7.5v125h-20.4V9.3l20.4-1.8ZM441.8,49.9l-1.3,17.9c-3.6-.8-6.2-1.1-8.9-1.1-5.9,0-11.9,2.1-16.9,9.5v56.4h-20.3V50.8l19-2.2v8.7c4.7-8.7,15-8.7,19.9-8.8,2.3,0,5.9.3,8.6,1.3ZM267.9,25v25.9h22.8l-.8,15.6h-21.9v35.7c0,10.7,5.3,13.6,12.1,13.6h.6c3,0,6.7-.6,12-2.4l-.2,15.1c-6.1,2.8-12.7,4.1-17.7,4.1-14.7,0-26.9-5.7-26.9-28.2v-37.8h-10.5v-14.1l11-1.6v-24c-.1,0,19.6-1.8,19.6-1.8ZM703.5,25v25.9c-.1,0,22.6,0,22.6,0l-.8,15.6h-21.9v35.7c0,10.7,5.3,13.6,12.1,13.6h.6c3,0,6.7-.6,12-2.4l-.2,15.1c-6.1,2.8-12.7,4.1-17.7,4.1-14.7,0-26.9-5.7-26.9-28.2v-37.8h-10.5v-14.1l11-1.6v-24s19.8-1.8,19.8-1.8ZM68.2,17l56.6,83.2V17h19.8v115.3h-23l-56.6-83.7v83.7h-19.9V17h23.2ZM192.2,47.1c23.3,0,32.6,10.2,32.6,31.9v29.1c0,7.8.4,10.5,9.4,10.2l-.6,12.6h-.4c-3.9.9-18,2.6-25.4-6.1-7.1,7-15.6,7.4-24.9,7.4-14.4,0-24.9-8.4-24.9-22.5s8.7-28.3,47.1-28.6v-2.6c0-11.5-2.4-15.6-15.2-15.6s-14.9,1.5-25.8,5.8l-1.3-14.6c8.4-4.7,20.6-7.1,29.5-7.1ZM482.3,47.1c23.3,0,32.6,10.2,32.6,31.9v29.1c0,7.8.4,10.5,9.4,10.2l-.6,12.6h-.4c-3.9.9-18,2.6-25.4-6.1-7.1,7-15.6,7.4-24.9,7.4-14.4,0-24.9-8.4-24.9-22.5s8.7-28.3,47.1-28.6v-2.6c0-11.5-2.4-15.6-15.2-15.6s-14.9,1.5-25.8,5.8l-1.3-14.6c8.4-4.7,20.6-7.1,29.5-7.1ZM640,47.1c6.4,0,15.6,1.1,22.2,3.9l-1.3,14.8c-8.2-2.6-15-3.4-19.9-3.4-9.8,0-13.3,4.4-13.3,8.9s1.9,6.8,11.3,9.6l7.6,2.1c14.5,4.1,19,12.7,19,22.4s-8.8,26.8-33,26.8-15.9-1.6-23.6-4.9l-.3-15.6c10.1,3.9,16.6,4.9,22.5,4.9,10.5,0,14.3-5.2,14.3-10.1v-.3c-.1-3.8-1.9-7.2-11.6-10.2l-7.7-2.1c-12.5-3.6-17.5-10.4-17.7-21.3,0-13.5,9.6-25.5,31.7-25.5ZM377.7,47.6v82.1l-18.3,1.8-.6-8.5c-7.3,8.6-16.2,9.2-25.5,9.2-19.1,0-28.3-12.4-28.3-33.3v-49.3l20.2-2v47.3c0,13.7,4.7,19.1,14.9,19.1s17.4-4.9,17.4-16.5v-47.9c0,0,20.2-2,20.2-2ZM593.2,49.5v82.6h-20.4V51.3l20.4-1.8ZM177.5,107.7c0,5.7,4.5,9.9,12.6,9.9s11.2-1.9,16-6.2v-16.7c-22.5-.5-28.7,6.3-28.7,12.9ZM467.6,107.7c0,5.7,4.5,9.9,12.6,9.9s11.2-1.9,16-6.2v-16.7c-22.5-.5-28.7,6.3-28.7,12.9ZM582.9,11.3c7.8,0,12.5,5.2,12.5,12.2s-5.2,12-12.7,12-12.5-5.2-12.5-12.2,5.2-12,12.7-12Z"/>
        <path id="i" class="st0" d="M26.6,49.6v83H3.8V51.4l22.8-1.8ZM20.7,2.1C28.1,0,37.1.4,38,1.1c-1.9,1.7-7.1,4.2-7.2,18.3,0,8-4.2,13.4-8.9,16.2-4.8,2.8-18.2,4.1-21.9,2.4,2.7-2.3,3.5-10.6,3.9-15.2.7-6.6,2.9-16.8,16.7-20.7Z"/>
      </g>
    </g>
  </g>
</svg>