<?xml version="1.0" encoding="UTF-8"?>
<svg id="Layer_1" xmlns="http://www.w3.org/2000/svg" version="1.1" viewBox="0 0 324 72">
  <!-- Generator: Adobe Illustrator 29.3.1, SVG Export Plug-In . SVG Version: 2.1.0 Build 151)  -->
  <path d="M119.4,26c-.5-1.5-1.2-2.7-2.2-3.7-.9-1-2-1.7-3.3-2.2-1.3-.5-2.6-.7-4.1-.7s-2.8.2-4,.7c-1.3.5-2.3,1.2-3.3,2.2-.9,1-1.7,2.2-2.2,3.7-.5,1.5-.8,3.3-.8,5.3s.3,3.8.8,5.3c.5,1.5,1.2,2.7,2.2,3.7.9,1,2,1.7,3.3,2.2,1.3.5,2.6.7,4,.7s2.8-.2,4.1-.7c1.3-.5,2.3-1.2,3.3-2.2.9-1,1.7-2.2,2.2-3.7.5-1.5.8-3.3.8-5.3s-.3-3.8-.8-5.3M97,25.7c.7-1.7,1.6-3,2.9-4.2,1.2-1.1,2.7-2,4.4-2.6,1.7-.6,3.6-.9,5.6-.9s3.9.3,5.7.9c1.7.6,3.2,1.5,4.4,2.6,1.2,1.1,2.2,2.5,2.9,4.2.7,1.7,1,3.5,1,5.6s-.3,4-1,5.6c-.7,1.6-1.6,3-2.9,4.2-1.2,1.1-2.7,2-4.4,2.6-1.7.6-3.6.8-5.7.8s-3.9-.3-5.6-.8c-1.7-.6-3.2-1.4-4.4-2.6-1.2-1.1-2.2-2.5-2.9-4.2-.7-1.7-1-3.5-1-5.6s.3-4,1-5.6"/>
  <path d="M93.7,35.1c0-1.2,0-2.3,0-3.5,0-1.2,0-2.3,0-3.5,0-1.6,0-3.2,0-4.8,0-4.3-3.4-4.8-3.4-4.8,0,1.6.1,3.2.2,4.8,0,1.6,0,3.2,0,4.8v10.2c0,1.5,0,2.8-.1,4,0,1.2-.3,2.2-.6,3.1-.3.9-.8,1.5-1.4,2,0,0-.9.9-2.7,1.8,1.4,0,2.6-.2,3.6-.6.9-.4,1.7-1,2.4-1.7.7-.7,1.2-1.5,1.5-2.5.4-.9.5-2,.5-3.1s0-1.9,0-2.9c0-1.1,0-2.2,0-3.3"/>
  <path d="M134.5,29.5c1.3,0,4.8,0,6.1,0,1.3,0,2.5,0,3.9,0v-1.3c0-1.6,0-3.2,0-4.8,0-.4,0-.7,0-1.1,0-3,3.2-3.6,3.5-3.7,0,1.6-.1,3.2-.2,4.8,0,1.6,0,3.2,0,4.8v6.4c0,1.6,0,3.3,0,4.8,0,1.6.1,3.2.2,4.7-.3,0-3.5-.7-3.5-3.7,0-.3,0-.7,0-1,0-1.6,0-3.2,0-4.8v-3.4c-1.3,0-2.6,0-3.9,0-1.3,0-2.6,0-3.9,0s-5,0-6.2,0c0,0,.8-1.6,4-1.6"/>
  <path d="M125.9,28.1v6.4c0,1.6,0,3.3,0,4.8,0,1.6-.1,3.2-.2,4.7.3,0,3.5-.7,3.5-3.7,0-.3,0-.7,0-1,0-1.6,0-3.2,0-4.8v-6.4c0-1.6,0-3.2,0-4.8,0-.4,0-.9,0-1.3-.2-2.9-3.5-3.5-3.5-3.5,0,1.6.1,3.2.2,4.8,0,1.6,0,3.2,0,4.8"/>
  <path d="M153.8,24c3.2,3.4,6.5,6.9,9.7,10.3,2.6,2.8,5.1,5.6,7.5,8.3h0s0,0,0,0c.3.4.7.8,1,1.1.8.8,1.8,1.3,2-.6,0-.6,0-1.2,0-2,0-.8,0-1.7,0-2.6,0-.9,0-1.9,0-2.8,0-.9,0-1.8,0-2.6v-2.2c0-.7,0-1.7,0-2.9,0-1.2.1-2.4.2-3.6,0-1.2.1-2.4.2-3.5,0-1,.1-1.8.2-2.4-.5.1-.8.2-.8.2,0,0-2.3.8-2.3,3.8,0,.9,0,1.9,0,2.9,0,2.5,0,5,0,7.6v5.1c-1.1-1.1-2.5-2.5-4-4.2-1.5-1.6-3.1-3.4-4.8-5.2-1.6-1.7-7-7.1-9.2-9.4-2.1-1.9-2.1.3-2.1.3h0c0,.6,0,1.3,0,2.1,0,1.7,0,3.8,0,6.1s0,1.8,0,2.8c0,1,0,2.1,0,3.2,0,1.1,0,2.2-.1,3.3,0,1-.1,1.8-.1,2.7,0,1,.5,3.2,3.1,4.2,0-.2,0-.6,0-1.1,0-.6,0-1.2,0-2,0-.7,0-1.6,0-2.4,0-.9,0-1.7,0-2.6,0-.8,0-1.7,0-2.4,0-.8,0-1.4,0-1.9,0-2,0-3.6,0-4.8,0-1.2,0-2.1,0-2.8"/>
  <path d="M267,25.9c-.5-1.5-1.2-2.7-2.2-3.7-.9-1-2-1.7-3.3-2.2-1.3-.5-2.6-.7-4.1-.7s-2.8.2-4,.7c-1.3.5-2.3,1.2-3.3,2.2-.9,1-1.7,2.2-2.2,3.7-.5,1.5-.8,3.3-.8,5.3s.3,3.8.8,5.3c.5,1.5,1.2,2.7,2.2,3.7.9,1,2,1.7,3.3,2.2,1.3.5,2.6.7,4,.7s2.8-.2,4.1-.7c1.3-.5,2.3-1.2,3.3-2.2.9-1,1.7-2.2,2.2-3.7.5-1.5.8-3.3.8-5.3s-.3-3.8-.8-5.3M244.6,25.6c.7-1.7,1.6-3,2.9-4.2,1.2-1.1,2.7-2,4.4-2.6,1.7-.6,3.6-.9,5.6-.9s4,.3,5.7.9c1.7.6,3.2,1.5,4.4,2.6,1.2,1.1,2.2,2.5,2.9,4.2.7,1.7,1,3.5,1,5.6s-.3,4-1,5.6c-.7,1.6-1.6,3.1-2.9,4.2-1.2,1.1-2.7,2-4.4,2.6-1.7.6-3.6.8-5.7.8s-3.9-.3-5.6-.8c-1.7-.6-3.2-1.4-4.4-2.6-1.2-1.1-2.2-2.5-2.9-4.2-.7-1.7-1-3.5-1-5.6s.3-4,1-5.6"/>
  <path d="M219.5,39.2c-.3.8-.8,1.4-1.3,2-.5.5-1.2.9-1.9,1.2s-1.5.4-2.3.4-1.3,0-2,0c-.6,0-1.2,0-1.7-.1,0-1.3-.1-2.5-.2-3.8,0-1.2,0-2.5,0-3.8v-8c0-1.2,0-2.4,0-3.5,0-1.2.1-2.3.2-3.5.3,0,.7,0,1.2-.1.4,0,1,0,1.6,0s1.4,0,2.2.2c.7.1,1.4.3,1.9.7.6.3,1,.8,1.4,1.4.4.6.6,1.4.6,2.4s-.2,1.9-.6,2.6c-.4.7-1,1.2-1.6,1.6-.7.4-1.4.7-2.3.9,0,0-3.2.5-3.9,1.7h.9c1.2,0,2.4,0,3.4.2,1,.1,1.9.4,2.6.8.7.4,1.3.9,1.7,1.6.4.7.6,1.6.6,2.6s-.2,1.9-.5,2.7M221.5,32c-1.3-1-3-1.5-5.2-1.6h0c1.9-.5,3.4-1.2,4.5-2.3,1.2-1,1.7-2.5,1.7-4.3s-.2-1.9-.6-2.6c-.4-.7-1-1.2-1.7-1.7-.7-.4-1.6-.7-2.5-.9-.9-.2-2-.2-3-.2s-1.3,0-2,0c-.7,0-1.3,0-2,0s-1.2,0-1.7,0c0,0,0,0,0,0,0,0-2,0-2,3.5h0c0,.4,0,.7,0,1.1,0,1.6,0,3.2,0,4.8v6.4c0,1.6,0,3.2,0,4.8,0,1.6-.1,3.2-.2,4.8.6,0,1.2,0,1.8,0h1.8c.6,0,1.2,0,1.8,0,.6,0,1.2,0,1.8,0,1.1,0,2.2-.1,3.3-.4,1.1-.2,2.1-.6,3-1.2.9-.6,1.7-1.3,2.2-2.3.6-.9.9-2.1.9-3.5,0-2.1-.6-3.7-1.9-4.7"/>
  <path d="M238.7,39.2c-.3.8-.8,1.4-1.3,2-.5.5-1.2.9-1.9,1.2-.7.3-1.5.4-2.3.4s-1.3,0-2,0c-.6,0-1.2,0-1.7-.1,0-1.3,0-2.5-.2-3.8,0-1.2,0-2.5,0-3.8v-8c0-1.2,0-2.4,0-3.5,0-1.2.1-2.3.2-3.5.3,0,.7,0,1.2-.1.4,0,1,0,1.6,0s1.4,0,2.2.2c.7.1,1.4.3,1.9.7.6.3,1,.8,1.4,1.4.4.6.6,1.4.6,2.4s-.2,1.9-.6,2.6c-.4.7-1,1.2-1.6,1.6-.7.4-1.4.7-2.3.9,0,0-3.2.5-3.9,1.7h.9c1.2,0,2.4,0,3.4.2,1,.1,1.9.4,2.6.8.7.4,1.3.9,1.7,1.6.4.7.6,1.6.6,2.6s-.2,1.9-.5,2.7M240.6,32c-1.3-1-3-1.5-5.2-1.6h0c1.9-.5,3.4-1.2,4.5-2.3,1.2-1,1.7-2.5,1.7-4.3s-.2-1.9-.6-2.6c-.4-.7-1-1.2-1.7-1.7-.7-.4-1.6-.7-2.5-.9-.9-.2-1.9-.2-3-.2s-1.3,0-2,0c-.7,0-1.3,0-2,0s-1.2,0-1.7,0c0,0,0,0,0,0,0,0-2,0-2,3.5h0c0,.4,0,.7,0,1.1,0,1.6,0,3.2,0,4.8v6.4c0,1.6,0,3.2,0,4.8,0,1.6-.1,3.2-.2,4.8.6,0,1.2,0,1.8,0h1.8c.6,0,1.2,0,1.8,0,.6,0,1.2,0,1.8,0,1.1,0,2.2-.1,3.3-.4,1.1-.2,2.1-.6,3-1.2.9-.6,1.7-1.3,2.2-2.3.6-.9.9-2.1.9-3.5,0-2.1-.6-3.7-1.9-4.7"/>
  <path d="M203.2,41.4c-.5-1.1-1.1-2.4-1.7-3.9-.6-1.5-1.3-3-2-4.7-.7-1.7-1.4-3.4-2.2-5.1-.7-1.7-1.4-3.4-2.1-5.1s-1.3-3.2-1.9-4.7c-1.1-.1-2.2,1.8-2.9,3.1-1.5,3.4-2.9,6.7-4.4,10-1.3,3-2.7,6-4.1,9,0,0-1,2.2,1.8,3.9.3-1.1.8-2.6,1.5-4.3.6-1.8,1.4-3.6,2.2-5.5l.7-1.7,4.1-9.5,4.1,9.5c-.7,0-1.4,0-2.1,0-.7,0-1.4,0-2.1,0-2.8,0-3.5,1.6-3.5,1.6.7,0,2.5,0,3.3,0s1.6,0,2.5,0c.8,0,1.6,0,2.4,0,.3.8.7,1.7,1,2.6.4.9.7,1.8,1.1,2.7.2.5.4,1,.6,1.4.4.8,1.9,3.1,5,3.2,0,0,0,0,.1,0-.3-.6-.7-1.5-1.2-2.6"/>
  <path d="M310.8,18.5c-1.6,0-4.2,0-5.7,0-1.6,0-2.6,0-4.3,0s-4.6,0-6.2,0c-4.1,0-4.8,2.2-4.8,2.2.5,0,1.1-.1,1.8-.2.7,0,1.3,0,2-.1.7,0,2,0,2.7,0,.7,0,1.4,0,2,0,0,2.6.1,5.1.1,7.7v6.4c0,1.6,0,3.3,0,4.8,0,1.6-.1,3.2-.2,4.7,0,0,3.6-.6,3.7-5.8,0-1.2,0-2.5,0-3.7v-6.4c0-2.6,0-5.2.1-7.7.6,0,1.3,0,2,0,.7,0,1.4,0,2.1,0,.2,0,.4,0,.5,0,3.2,0,4.2-2,4.2-2"/>
  <path d="M290.1,18.5c-1.6,0-3.9,0-5.4,0-1.6,0-2.6,0-4.3,0s-4.8,0-6.4,0c-4.1,0-4.8,2.2-4.8,2.2.5,0,1.1-.1,1.8-.2.7,0,1.3,0,2-.1.7,0,2.2,0,2.9,0,.7,0,1.4,0,2,0,0,2.6.1,5.1.1,7.7v6.4c0,1.6,0,3.3,0,4.8,0,1.6-.1,3.2-.2,4.7,0,0,3.6-.6,3.7-5.8,0-1.2,0-2.5,0-3.7v-6.4c0-2.6,0-5.2.1-7.7.6,0,1.3,0,2,0,.7,0,1.1,0,1.8,0,.2,0,.4,0,.5,0,3.2,0,4.2-2,4.2-2"/>
  <path d="M71.3,19.9s9.5,9.9,3.3,26.1c0,0-4.7-13.9-3.3-26.1"/>
  <path d="M70.6,49.3h0c-1.5-5.1-4.4-17-3.9-30,0-.1,0-.2,0-.4,0-3.3-2-5.2-2.6-5.6h0c0,0-.1-.1-.1-.1h0s-2.1-1.6-2.1-1.6c0,5-1.7,29,5.8,44l2.2-2.3c1.3-1.8.6-4,.6-4"/>
  <path d="M60.6,59.9c3.5-1.4,2-4.1,2-4.4-4.9-12.4-4.9-24.9-4.9-24.9V10.6c-.4-2.3-2.3-4.1-2.7-4.5l-2.2-1.8v25.9c.1,19.6,6.4,30.4,6.4,30.4l1.5-.6h0Z"/>
  <path d="M28.9,19.9s-9.5,9.9-3.3,26.1c0,0,4.7-13.9,3.3-26.1"/>
  <path d="M29.6,49.3h0c1.5-5.1,4.4-17,3.9-30,0-.1,0-.2,0-.4,0-3.3,2-5.2,2.6-5.6h0c0,0,.1-.1.1-.1h0s2.1-1.6,2.1-1.6c0,5,1.7,29-5.8,44l-2.2-2.3c-1.3-1.8-.6-4-.6-4"/>
  <path d="M39.6,59.9c-3.5-1.4-2-4.1-2-4.4,4.9-12.4,4.9-24.9,4.9-24.9V10.6c.4-2.3,2.3-4.1,2.7-4.5l2.2-1.8v25.9c-.1,19.6-6.4,30.4-6.4,30.4l-1.5-.6h0Z"/>
  <path d="M165.1,52.8c-.2-.6-.5-1.2-.9-1.6-.4-.4-.9-.7-1.4-.9-.5-.2-1.1-.3-1.7-.3s-1.2.1-1.7.3c-.5.2-1,.5-1.4.9-.4.4-.7.9-.9,1.6-.2.6-.3,1.4-.3,2.3s.1,1.6.3,2.3c.2.6.5,1.2.9,1.6.4.4.9.7,1.4.9.5.2,1.1.3,1.7.3s1.2,0,1.7-.3c.5-.2,1-.5,1.4-.9.4-.4.7-.9.9-1.6.2-.6.3-1.4.3-2.3s-.1-1.6-.3-2.3M155.6,52.7c.3-.7.7-1.3,1.2-1.8.5-.5,1.1-.8,1.9-1.1.7-.3,1.5-.4,2.4-.4s1.7.1,2.4.4c.7.3,1.3.6,1.9,1.1.5.5.9,1.1,1.2,1.8.3.7.4,1.5.4,2.4s-.1,1.7-.4,2.4c-.3.7-.7,1.3-1.2,1.8-.5.5-1.1.8-1.9,1.1-.7.2-1.5.4-2.4.4s-1.7-.1-2.4-.4c-.7-.2-1.3-.6-1.9-1.1-.5-.5-.9-1.1-1.2-1.8-.3-.7-.4-1.5-.4-2.4s.1-1.7.4-2.4"/>
  <path d="M103.3,59.8h0c-.2,0-.4.1-.6.2-.3,0-.7.1-1,.1-.6,0-1.2,0-1.7-.3-.5-.2-1-.5-1.4-.9-.4-.4-.7-.9-.9-1.6-.2-.6-.3-1.4-.3-2.3s.1-1.6.3-2.3c.2-.6.5-1.2.9-1.6.4-.4.9-.7,1.4-.9.5-.2,1.1-.3,1.7-.3s.7,0,1,.1c0,0,.1,0,.2,0h0s1.6.7,2.2,0c-.4-.2-.9-.4-1.5-.5-.6-.1-1.2-.2-1.9-.2s-1.7.1-2.4.4c-.7.3-1.3.6-1.9,1.1-.5.5-.9,1.1-1.2,1.8-.3.7-.4,1.5-.4,2.4s.1,1.7.4,2.4c.3.7.7,1.3,1.2,1.8.5.5,1.1.8,1.8,1.1.7.2,1.5.4,2.3.4s.8,0,1.1,0c.4,0,.7-.1,1-.2.3,0,.5-.2.7-.3.2,0,.4-.2.4-.3-.6-.4-1.5,0-1.5,0"/>
  <path d="M153.8,59.8h0c-.2,0-.4.1-.6.2-.3,0-.7.1-1,.1-.6,0-1.2,0-1.7-.3-.5-.2-1-.5-1.4-.9-.4-.4-.7-.9-.9-1.6-.2-.6-.3-1.4-.3-2.3s.1-1.6.3-2.3c.2-.6.5-1.2.9-1.6s.9-.7,1.4-.9c.5-.2,1.1-.3,1.7-.3s.7,0,1,.1c0,0,.1,0,.2,0h0s1.6.7,2.2,0c-.4-.2-.9-.4-1.5-.5-.6-.1-1.2-.2-1.9-.2s-1.7.1-2.4.4c-.7.3-1.3.6-1.9,1.1-.5.5-.9,1.1-1.2,1.8-.3.7-.4,1.5-.4,2.4s.1,1.7.4,2.4c.3.7.7,1.3,1.2,1.8.5.5,1.1.8,1.8,1.1.7.2,1.5.4,2.3.4s.8,0,1.1,0c.4,0,.7-.1,1-.2.3,0,.5-.2.7-.3.2,0,.4-.2.4-.3-.6-.4-1.5,0-1.5,0"/>
  <path d="M110.1,50.5c1.4,0,1.6-.7,1.6-.8,0,0,0,0,0,0-.5,0-.9,0-1.4,0-.5,0-.9,0-1.4,0s-.7,0-1.1,0c0,0-.2,0-.3,0-1.5-.1-1.4,1-1.4,1h0c0,.3,0,.6,0,1,0,.7,0,1.4,0,2v2.7c0,.7,0,1.4,0,2,0,.7,0,1.3,0,2,.5,0,1,0,1.4,0h2.9c.5,0,.9,0,1.4,0,0,0-.3-.8-1.5-.7,0,0,0,0-.1,0-.1,0-.3,0-.4,0-.4,0-.8,0-1.2,0h-1.1c0-.2,0-.5,0-.9,0-.4,0-.9,0-1.5v-1.6c0-.2,0-.3,0-.4,0-.1,0-.2,0-.3.2,0,.4,0,.8,0,.3,0,.7,0,1,0,.4,0,.7,0,1.1,0,.4,0,.7,0,1,0,0,0-.3-.9-1.6-.9-.3,0-.6,0-1,0-.4,0-.8,0-1.2,0,0-.2,0-.5,0-.9,0-.4,0-.8,0-1.2s0-.7,0-1c0-.3,0-.6,0-1,.5,0,1,0,1.3,0,0,0,.9,0,1.2,0"/>
  <path d="M127.8,50.5c1.4,0,1.6-.7,1.6-.8,0,0,0,0,0,0-.5,0-.9,0-1.4,0-.5,0-.9,0-1.4,0s-.7,0-1.1,0c0,0-.2,0-.3,0-1.5-.1-1.4,1-1.4,1h0c0,.3,0,.6,0,1,0,.7,0,1.4,0,2v2.7c0,.7,0,1.4,0,2,0,.7,0,1.3,0,2,.5,0,1,0,1.4,0h2.9c.5,0,.9,0,1.4,0,0,0-.3-.8-1.5-.7,0,0,0,0-.1,0-.1,0-.3,0-.4,0-.4,0-.8,0-1.2,0h-1.1c0-.2,0-.5,0-.9,0-.4,0-.9,0-1.5v-1.6c0-.2,0-.3,0-.4,0-.1,0-.2,0-.3.2,0,.4,0,.8,0,.3,0,.7,0,1,0,.4,0,.7,0,1.1,0,.4,0,.7,0,1,0,0,0-.3-.9-1.6-.9-.3,0-.6,0-1,0-.4,0-.8,0-1.2,0,0-.2,0-.5,0-.9,0-.4,0-.8,0-1.2s0-.7,0-1c0-.3,0-.6,0-1,.5,0,1,0,1.3,0,0,0,.9,0,1.2,0"/>
  <path d="M121.2,57.2s0,0,0,0c0,.1,0,.3,0,.4,0,.3,0,.6,0,1,0,.3,0,.6,0,.9-.1,0-.3.2-.5.2-.2,0-.4.1-.6.2-.2,0-.5,0-.7,0-.2,0-.5,0-.7,0-.7,0-1.4-.1-2-.3-.6-.2-1.1-.6-1.5-1-.4-.4-.7-.9-.9-1.6-.2-.6-.3-1.3-.3-2.1s.1-1.6.4-2.3c.2-.6.6-1.2,1-1.6.4-.4.9-.7,1.5-.9.6-.2,1.2-.3,1.8-.3s.8,0,1.1.1c.4,0,.7.2,1,.3,1.4.7,1.9-.2,1.9-.2-.2,0-.4-.2-.6-.3-.2-.1-.5-.2-.8-.3-.3,0-.7-.2-1.1-.2-.4,0-.9,0-1.4,0-.9,0-1.8.1-2.5.4-.8.3-1.4.6-1.9,1.1-.5.5-.9,1.1-1.2,1.8-.3.7-.4,1.5-.4,2.4s.1,1.7.4,2.4.7,1.3,1.2,1.8c.5.5,1.2.8,1.9,1,.8.2,1.6.3,2.5.3s.6,0,1,0c.4,0,.7,0,1.1-.2.4,0,.7-.1,1.1-.2.3,0,.6-.2.8-.3,0-.2,0-.4,0-.6,0-.2,0-.4,0-.6,0-.9,0-1.5,0-2.1,0-.5,0-.8,0-1.1h0s-1.3,0-1.4,1.6"/>
  <path d="M186.3,50.5c1.4,0,1.6-.7,1.6-.8,0,0,0,0,0,0-.5,0-.9,0-1.4,0-.5,0-.9,0-1.4,0s-.7,0-1.1,0c0,0-.2,0-.3,0-1.5-.1-1.4,1-1.4,1h0c0,.3,0,.6,0,1,0,.7,0,1.4,0,2v2.7c0,.7,0,1.4,0,2,0,.7,0,1.3,0,2,.5,0,1,0,1.4,0h2.9c.5,0,.9,0,1.4,0,0,0-.3-.8-1.5-.7,0,0,0,0-.1,0-.1,0-.3,0-.4,0-.4,0-.8,0-1.2,0h-1.1c0-.2,0-.5,0-.9,0-.4,0-.9,0-1.5v-1.6c0-.2,0-.3,0-.4,0-.1,0-.2,0-.3.2,0,.4,0,.8,0,.3,0,.7,0,1,0,.4,0,.7,0,1.1,0,.4,0,.7,0,1,0,0,0-.3-.9-1.6-.9-.3,0-.6,0-1,0-.4,0-.8,0-1.2,0,0-.2,0-.5,0-.9,0-.4,0-.8,0-1.2s0-.7,0-1c0-.3,0-.6,0-1,.5,0,1,0,1.3,0,0,0,.9,0,1.2,0"/>
  <path d="M204.2,50.5c1.4,0,1.6-.7,1.6-.8,0,0,0,0,0,0-.5,0-.9,0-1.4,0-.5,0-.9,0-1.4,0s-.7,0-1.1,0c0,0-.2,0-.3,0-1.5-.1-1.4,1-1.4,1h0c0,.3,0,.6,0,1,0,.7,0,1.4,0,2v2.7c0,.7,0,1.4,0,2,0,.7,0,1.3,0,2,.5,0,1,0,1.4,0h2.9c.5,0,.9,0,1.4,0,0,0-.3-.8-1.5-.7,0,0,0,0-.1,0-.1,0-.3,0-.4,0-.4,0-.8,0-1.2,0h-1.1c0-.2,0-.5,0-.9,0-.4,0-.9,0-1.5v-1.6c0-.2,0-.3,0-.4,0-.1,0-.2,0-.3.2,0,.4,0,.8,0,.3,0,.7,0,1,0,.4,0,.7,0,1.1,0,.4,0,.7,0,1,0,0,0-.3-.9-1.6-.9-.3,0-.6,0-1,0-.4,0-.8,0-1.2,0,0-.2,0-.5,0-.9,0-.4,0-.8,0-1.2s0-.7,0-1c0-.3,0-.6,0-1,.5,0,1,0,1.3,0,0,0,.9,0,1.2,0"/>
  <path d="M197.3,57.2s0,0,0,0c0,.1,0,.3,0,.4,0,.3,0,.6,0,1,0,.3,0,.6,0,.9-.1,0-.3.2-.5.2-.2,0-.4.1-.6.2-.2,0-.5,0-.7,0-.2,0-.5,0-.7,0-.7,0-1.4-.1-2-.3-.6-.2-1.1-.6-1.5-1-.4-.4-.7-.9-.9-1.6-.2-.6-.3-1.3-.3-2.1s.1-1.6.4-2.3c.2-.6.6-1.2,1-1.6.4-.4.9-.7,1.5-.9.6-.2,1.2-.3,1.8-.3s.8,0,1.1.1c.4,0,.7.2,1,.3,1.4.7,1.9-.2,1.9-.2-.2,0-.4-.2-.6-.3-.2-.1-.5-.2-.8-.3-.3,0-.7-.2-1.1-.2-.4,0-.9,0-1.4,0-.9,0-1.8.1-2.5.4-.8.3-1.4.6-1.9,1.1-.5.5-1,1.1-1.2,1.8-.3.7-.4,1.5-.4,2.4s.1,1.7.4,2.4.7,1.3,1.2,1.8c.5.5,1.2.8,1.9,1,.8.2,1.6.3,2.5.3s.6,0,1,0c.4,0,.7,0,1.1-.2.4,0,.7-.1,1.1-.2.3,0,.6-.2.8-.3,0-.2,0-.4,0-.6,0-.2,0-.4,0-.6,0-.9,0-1.5,0-2.1,0-.5,0-.8,0-1.1h0s-1.3,0-1.4,1.6"/>
  <path d="M137.6,51.2c-.1-.3-.3-.5-.5-.7-.2-.2-.4-.4-.7-.5-.3-.1-.5-.2-.8-.2-.3,0-.5,0-.7,0-.2,0-.4,0-.6,0s-.3,0-.4,0c-.2,0-.3,0-.5,0-.2,0-.4,0-.5,0-.2,0-.3,0-.5,0-.3,0-.5,0-.8,0-.3,0-.5,0-.8,0,0,.7,0,1.4,0,2,0,.7,0,1.3,0,2v2.7c0,.7,0,1.4,0,2,0,.7,0,1.3,0,2,0,0,1.4-.5,1.4-2.2s0,0,0,0c0-.6,0-1.2,0-1.8v-6.2h1.4c.4,0,.8,0,1.1,0,.3,0,.6.2.8.3.2.2.4.4.5.7.1.3.2.7.2,1.1s0,1-.3,1.3c-.2.3-.4.6-.7.8-.3.2-.6.4-1,.4-1.2.1-1.6.6-1.6.6h.7c.4,0,.8,0,1.3,0,.5,0,.9-.2,1.4-.5.4-.2.8-.6,1.1-1,.3-.4.4-1,.4-1.7s0-.8-.2-1.1"/>
  <path d="M172,59.8h0c0,0-.1,0-.2,0-.7,0-1.4,0-2.1,0,0-.8,0-1.6,0-2.6,0-1,0-2.1,0-3.4s0-1.3,0-2c0,0,0-.2,0-.3,0-1.4-1.4-1.8-1.4-1.8,0,.7,0,1.4,0,2,0,.7,0,1.3,0,2v2.7c0,.7,0,1.4,0,2,0,.7,0,1.3,0,2,.5,0,1,0,1.5,0h2.9c.5,0,1,0,1.4,0,0,0-.3-.8-2-.7"/>
  <path d="M179.2,59.8h0c0,0-.1,0-.2,0-.7,0-1.4,0-2.1,0,0-.8,0-1.6,0-2.6,0-1,0-2.1,0-3.4s0-1.3,0-2c0,0,0-.2,0-.3,0-1.4-1.4-1.8-1.4-1.8,0,.7,0,1.4,0,2,0,.7,0,1.3,0,2v2.7c0,.7,0,1.4,0,2,0,.7,0,1.3,0,2,.5,0,1,0,1.5,0h2.9c.5,0,1,0,1.5,0,0,0-.3-.8-2-.7"/>
  <path d="M141.6,53.7l-1.4,2.7c-.4.7-.7,1.4-1.1,2-.4.7-.7,1.3-1.1,2,.1,0,1.3.3,2-1,0-.1.1-.3.2-.4.3-.7.7-1.4,1-2.1l.7-1.4.4-.7.3-.6c.4-.7.7-1.4,1.1-2,.1-.2.2-.4.3-.6.6-1.3-.4-2.1-.4-2.1-.3.7-.6,1.4-1,2.1-.3.7-.7,1.4-1,2.1"/>
</svg>